<svg width="2210" height="2373" viewBox="0 0 2210 2373" fill="none" xmlns="http://www.w3.org/2000/svg">
<path d="M1149.92 1803.86V1612.12H1074.31V1567.56H1280.23V1612.12H1204.61V1803.86H1149.92ZM1383.66 1662.76H1473.66V1705.29H1363.95V1662.76H1309.6V1803.86H1492.56V1759.98H1363.95V1662.76L1383.66 1662.76ZM1329.31 1611.44V1567.56H1507.88V1611.44H1403.36H1383.66H1329.31ZM1668.91 1807.91C1650.68 1807.91 1633.74 1804.93 1618.1 1798.97C1602.46 1793 1588.9 1784.51 1577.42 1773.48C1565.94 1762.45 1557 1749.51 1550.58 1734.66C1544.17 1719.81 1540.96 1703.49 1540.96 1685.71C1540.96 1667.93 1544.17 1651.62 1550.58 1636.76C1557 1621.91 1566 1608.97 1577.59 1597.94C1589.18 1586.91 1602.74 1578.42 1618.27 1572.45C1633.8 1566.49 1650.79 1563.51 1669.24 1563.51C1689.72 1563.51 1708.23 1567.05 1724.77 1574.14C1741.31 1581.23 1755.21 1591.64 1766.46 1605.37L1731.36 1637.78C1723.25 1628.55 1714.25 1621.63 1704.35 1617.01C1694.45 1612.4 1683.65 1610.09 1671.94 1610.09C1660.92 1610.09 1650.79 1611.9 1641.56 1615.5C1632.33 1619.1 1624.35 1624.27 1617.59 1631.02C1610.84 1637.78 1605.61 1645.77 1601.9 1654.99C1598.18 1664.22 1596.33 1674.46 1596.33 1685.71C1596.33 1696.97 1598.18 1707.21 1601.9 1716.43C1605.61 1725.66 1610.84 1733.65 1617.59 1740.4C1624.35 1747.15 1632.33 1752.33 1641.56 1755.93C1650.79 1759.53 1660.92 1761.33 1671.94 1761.33C1683.65 1761.33 1694.45 1759.02 1704.35 1754.41C1714.25 1749.8 1723.26 1742.76 1731.36 1733.31L1766.46 1765.72C1755.21 1779.45 1741.31 1789.91 1724.77 1797.12C1708.23 1804.32 1689.61 1807.92 1668.9 1807.92L1668.91 1807.91ZM1965.3 1567.56H2019.98V1803.87H1965.3V1567.56ZM1857.95 1803.87H1803.26V1567.56H1857.95V1803.87ZM1969.35 1706.98H1853.9V1660.73H1969.35V1706.98Z" fill="#828487"/>
<path d="M1089.33 257.261C1257.64 257.261 1410.02 325.486 1520.32 435.791C1630.63 546.093 1698.85 698.479 1698.85 866.788C1698.85 1035.1 1630.63 1187.48 1520.32 1297.78C1410.02 1408.09 1257.64 1476.32 1089.33 1476.32C1074.11 1476.32 1059.02 1475.75 1044.09 1474.65V1442.38V1413.38V1409.78V1383.16V1158.9H1134.57V1383.16C1399.66 1360.24 1607.68 1137.82 1607.68 866.791C1607.68 580.51 1375.6 348.432 1089.32 348.432C803.044 348.432 570.968 580.508 570.968 866.791C570.968 1127.67 763.695 1343.5 1014.53 1379.76V1406.55V1410.15V1471.76C876.119 1454.82 752.039 1391.49 658.33 1297.78C548.028 1187.48 479.803 1035.1 479.803 866.785C479.803 698.476 548.028 546.09 658.33 435.788C768.632 325.486 921.018 257.258 1089.33 257.258V257.261ZM1044.09 1042.12V969.484L1088.22 866.343L1134.57 974.268V1042.12H1044.09ZM1044.09 699.647V624.556H836.778V534.347H1341.88V624.556H1134.57V699.647H1044.08H1044.09Z" fill="#828487"/>
<path d="M791.24 1267.81L1038.66 717.98H1139.2L1387.41 1267.81H1280.59L1067.72 772.179H1108.57L896.495 1267.81H791.24ZM905.133 1140.57L932.622 1060.45H1229.53L1257.02 1140.57H905.133Z" fill="#2567B1"/>
<path d="M224.627 2002.97V1865.29H171.379V1851.43H293.899V1865.29H240.645V2002.97H224.627ZM340.281 1919.19H420.377V1932.83H340.281V1919.19ZM342.014 1989.11H433.148V2002.97H325.993V1851.43H429.906V1865.29H342.014V1989.11ZM542.738 2004.26C531.338 2004.26 520.802 2002.35 511.134 1998.53C501.466 1994.7 493.095 1989.33 486.022 1982.4C478.949 1975.47 473.427 1967.31 469.462 1957.94C465.492 1948.56 463.507 1938.31 463.507 1927.2C463.507 1916.09 465.489 1905.84 469.462 1896.46C473.427 1887.08 478.983 1878.92 486.129 1872C493.27 1865.07 501.679 1859.7 511.347 1855.87C521.015 1852.05 531.55 1850.13 542.951 1850.13C553.923 1850.13 564.238 1851.97 573.906 1855.65C583.579 1859.34 591.73 1864.85 598.369 1872.22L588.193 1882.39C581.988 1876.04 575.136 1871.46 567.627 1868.64C560.126 1865.83 552.04 1864.42 543.385 1864.42C534.293 1864.42 525.856 1865.97 518.06 1869.08C510.263 1872.18 503.483 1876.58 497.709 1882.28C491.937 1887.98 487.428 1894.62 484.181 1902.2C480.937 1909.77 479.312 1918.11 479.312 1927.2C479.312 1936.29 480.94 1944.63 484.181 1952.2C487.431 1959.78 491.94 1966.42 497.709 1972.12C503.486 1977.82 510.266 1982.22 518.06 1985.32C525.856 1988.43 534.293 1989.97 543.385 1989.97C552.043 1989.97 560.126 1988.53 567.627 1985.65C575.134 1982.76 581.988 1978.14 588.193 1971.79L598.369 1981.96C591.73 1989.33 583.579 1994.88 573.906 1998.63C564.238 2002.39 553.847 2004.26 542.735 2004.26L542.738 2004.26ZM749.963 1851.43H765.762V2002.96H749.963V1851.43ZM655.145 2002.96H639.124V1851.43H655.145V2002.96ZM751.474 1933.04H653.412V1918.97H751.474V1933.04ZM821.665 2002.96V1851.43H834.869L939.428 1983.05H932.503V1851.43H948.302V2002.96H935.098L830.757 1871.35H837.685V2002.96H821.667H821.665ZM1070.45 2004.26C1059.05 2004.26 1048.47 2002.35 1038.73 1998.52C1028.99 1994.7 1020.55 1989.29 1013.41 1982.29C1006.26 1975.29 1000.7 1967.14 996.738 1957.83C992.767 1948.52 990.785 1938.31 990.785 1927.2C990.785 1916.08 992.767 1905.87 996.738 1896.57C1000.7 1887.25 1006.26 1879.1 1013.41 1872.1C1020.55 1865.1 1028.95 1859.69 1038.62 1855.87C1048.29 1852.05 1058.9 1850.13 1070.45 1850.13C1081.85 1850.13 1092.38 1852.04 1102.05 1855.87C1111.72 1859.7 1120.13 1865.07 1127.27 1871.99C1134.42 1878.92 1139.97 1887.08 1143.94 1896.46C1147.91 1905.83 1149.89 1916.08 1149.89 1927.2C1149.89 1938.31 1147.91 1948.55 1143.94 1957.93C1139.97 1967.31 1134.42 1975.47 1127.27 1982.4C1120.13 1989.32 1111.72 1994.7 1102.05 1998.52C1092.38 2002.35 1081.85 2004.26 1070.45 2004.26ZM1070.45 1989.97C1079.54 1989.97 1087.94 1988.42 1095.66 1985.32C1103.39 1982.22 1110.1 1977.81 1115.79 1972.12C1121.5 1966.41 1125.93 1959.77 1129.11 1952.2C1132.29 1944.62 1133.88 1936.29 1133.88 1927.2C1133.88 1918.11 1132.29 1909.77 1129.11 1902.2C1125.93 1894.61 1121.5 1887.98 1115.79 1882.28C1110.1 1876.58 1103.38 1872.18 1095.66 1869.07C1087.94 1865.97 1079.54 1864.42 1070.45 1864.42C1061.36 1864.42 1052.91 1865.97 1045.12 1869.07C1037.33 1872.18 1030.58 1876.58 1024.88 1882.28C1019.18 1887.98 1014.71 1894.61 1011.46 1902.2C1008.21 1909.77 1006.59 1918.11 1006.59 1927.2C1006.59 1936.14 1008.21 1944.44 1011.46 1952.09C1014.71 1959.74 1019.18 1966.41 1024.88 1972.12C1030.58 1977.81 1037.33 1982.22 1045.12 1985.32C1052.91 1988.42 1061.36 1989.97 1070.45 1989.97ZM1192.37 2002.96V1851.43H1208.39V1989.11H1293.25V2002.96H1192.37ZM1389.64 2004.26C1378.24 2004.26 1367.66 2002.35 1357.92 1998.52C1348.18 1994.7 1339.74 1989.28 1332.6 1982.28C1325.45 1975.29 1319.89 1967.13 1315.93 1957.83C1311.96 1948.51 1309.97 1938.31 1309.97 1927.19C1309.97 1916.08 1311.96 1905.87 1315.93 1896.56C1319.89 1887.25 1325.45 1879.1 1332.6 1872.1C1339.74 1865.1 1348.15 1859.69 1357.81 1855.87C1367.48 1852.04 1378.09 1850.13 1389.64 1850.13C1401.04 1850.13 1411.58 1852.04 1421.24 1855.87C1430.91 1859.69 1439.32 1865.06 1446.46 1871.99C1453.6 1878.92 1459.16 1887.07 1463.13 1896.45C1467.1 1905.83 1469.08 1916.08 1469.08 1927.19C1469.08 1938.31 1467.1 1948.55 1463.13 1957.93C1459.16 1967.31 1453.61 1975.47 1446.46 1982.39C1439.32 1989.32 1430.91 1994.7 1421.24 1998.52C1411.58 2002.35 1401.04 2004.26 1389.64 2004.26H1389.64ZM1389.64 1989.97C1398.73 1989.97 1407.13 1988.42 1414.85 1985.32C1422.57 1982.22 1429.29 1977.81 1434.98 1972.11C1440.69 1966.41 1445.12 1959.77 1448.3 1952.2C1451.47 1944.62 1453.07 1936.29 1453.07 1927.19C1453.07 1918.1 1451.47 1909.77 1448.3 1902.19C1445.12 1894.61 1440.69 1887.97 1434.98 1882.28C1429.29 1876.57 1422.57 1872.17 1414.85 1869.07C1407.13 1865.97 1398.73 1864.41 1389.64 1864.41C1380.54 1864.41 1372.1 1865.97 1364.31 1869.07C1356.52 1872.17 1349.77 1876.57 1344.07 1882.28C1338.37 1887.97 1333.9 1894.61 1330.65 1902.19C1327.4 1909.77 1325.78 1918.1 1325.78 1927.19C1325.78 1936.14 1327.4 1944.44 1330.65 1952.09C1333.9 1959.73 1338.37 1966.41 1344.07 1972.11C1349.77 1977.81 1356.52 1982.22 1364.31 1985.32C1372.1 1988.42 1380.54 1989.97 1389.64 1989.97ZM1578.02 2004.26C1566.47 2004.26 1555.83 2002.35 1546.09 1998.52C1536.35 1994.7 1527.9 1989.32 1520.77 1982.39C1513.62 1975.47 1508.06 1967.31 1504.1 1957.93C1500.13 1948.55 1498.14 1938.31 1498.14 1927.19C1498.14 1916.08 1500.13 1905.83 1504.1 1896.45C1508.06 1887.07 1513.65 1878.91 1520.87 1871.99C1528.09 1865.06 1536.56 1859.69 1546.3 1855.87C1556.05 1852.04 1566.69 1850.13 1578.24 1850.13C1589.78 1850.13 1600.35 1851.93 1609.95 1855.54C1619.55 1859.15 1627.73 1864.63 1634.52 1871.99L1624.56 1882.17C1618.21 1875.81 1611.21 1871.27 1603.56 1868.53C1595.91 1865.78 1587.68 1864.41 1578.88 1864.41C1569.51 1864.41 1560.88 1865.97 1553.01 1869.07C1545.15 1872.17 1538.29 1876.57 1532.45 1882.28C1526.6 1887.97 1522.06 1894.61 1518.81 1902.19C1515.57 1909.77 1513.94 1918.1 1513.94 1927.19C1513.94 1936.14 1515.57 1944.44 1518.81 1952.09C1522.06 1959.73 1526.61 1966.41 1532.45 1972.11C1538.29 1977.81 1545.15 1982.22 1553.01 1985.32C1560.88 1988.42 1569.43 1989.97 1578.67 1989.97C1587.32 1989.97 1595.52 1988.67 1603.24 1986.08C1610.96 1983.48 1618.07 1979.08 1624.56 1972.87L1633.65 1984.99C1626.43 1991.34 1617.99 1996.14 1608.32 1999.39C1598.66 2002.64 1588.55 2004.26 1578.02 2004.26H1578.02ZM1618.28 1983.04V1927.19H1633.65V1984.99L1618.28 1983.04ZM1685.44 2002.96V1851.43H1701.46V2002.96H1685.44ZM1771.65 1919.19H1851.75V1932.82H1771.65V1919.19ZM1773.38 1989.11H1864.52V2002.96H1757.37V1851.43H1861.28V1865.29H1773.39V1989.11H1773.38ZM1950.52 2004.26C1939.26 2004.26 1928.47 2002.42 1918.15 1998.74C1907.84 1995.06 1899.86 1990.33 1894.24 1984.56L1900.51 1972.22C1905.85 1977.41 1913.04 1981.78 1922.05 1985.32C1931.07 1988.86 1940.56 1990.62 1950.52 1990.62C1960.04 1990.62 1967.8 1989.43 1973.79 1987.05C1979.78 1984.67 1984.18 1981.46 1986.99 1977.41C1989.81 1973.38 1991.22 1968.9 1991.22 1964C1991.22 1958.08 1989.52 1953.32 1986.13 1949.71C1982.73 1946.1 1978.3 1943.25 1972.82 1941.16C1967.34 1939.07 1961.27 1937.23 1954.63 1935.64C1947.99 1934.05 1941.35 1932.36 1934.71 1930.55C1928.08 1928.75 1921.98 1926.33 1916.42 1923.3C1910.87 1920.27 1906.4 1916.26 1903.01 1911.28C1899.61 1906.31 1897.92 1899.77 1897.92 1891.7C1897.92 1884.19 1899.9 1877.3 1903.87 1871.02C1907.84 1864.74 1913.93 1859.69 1922.16 1855.87C1930.39 1852.04 1940.92 1850.13 1953.77 1850.13C1962.28 1850.13 1970.72 1851.32 1979.1 1853.7C1987.47 1856.08 1994.68 1859.37 2000.74 1863.55L1995.33 1876.32C1988.84 1871.99 1981.95 1868.82 1974.66 1866.8C1967.37 1864.78 1960.33 1863.77 1953.55 1863.77C1944.45 1863.77 1936.95 1864.99 1931.03 1867.44C1925.12 1869.9 1920.75 1873.18 1917.94 1877.3C1915.13 1881.41 1913.72 1886.06 1913.72 1891.26C1913.72 1897.18 1915.41 1901.94 1918.8 1905.55C1922.19 1909.16 1926.67 1911.97 1932.23 1913.99C1937.78 1916.01 1943.88 1917.82 1950.52 1919.4C1957.16 1920.99 1963.76 1922.72 1970.32 1924.6C1976.89 1926.47 1982.96 1928.89 1988.51 1931.85C1994.07 1934.81 1998.54 1938.74 2001.93 1943.65C2005.33 1948.55 2007.02 1954.98 2007.02 1962.91C2007.02 1970.27 2005 1977.09 2000.96 1983.37C1996.92 1989.65 1990.74 1994.7 1982.45 1998.52C1974.15 2002.35 1963.51 2004.26 1950.52 2004.26V2004.26Z" fill="#828487"/>
<path d="M178.377 1803.86L283.699 1567.56H337.713L443.373 1803.86H385.984L299.567 1595.24H321.171L234.416 1803.86H178.38H178.377ZM231.038 1753.22L245.555 1711.7H367.083L381.937 1753.22H231.038ZM468.018 1803.86V1567.56H522.707V1803.86H468.018ZM692.842 1807.91C674.165 1807.91 657.004 1804.93 641.364 1798.97C625.723 1793 612.108 1784.5 600.517 1773.48C588.927 1762.45 579.925 1749.51 573.51 1734.66C567.095 1719.8 563.891 1703.49 563.891 1685.71C563.891 1667.93 567.095 1651.61 573.51 1636.76C579.925 1621.9 588.983 1608.96 600.685 1597.94C612.386 1586.91 626.115 1578.41 641.869 1572.45C657.625 1566.49 674.953 1563.51 693.855 1563.51C714.784 1563.51 733.632 1566.99 750.398 1573.97C767.165 1580.95 781.288 1591.07 792.765 1604.35L757.656 1636.76C749.102 1627.76 739.766 1621.06 729.636 1616.67C719.509 1612.28 708.483 1610.09 696.555 1610.09C685.077 1610.09 674.613 1611.89 665.16 1615.49C655.708 1619.09 647.552 1624.27 640.686 1631.02C633.823 1637.77 628.534 1645.76 624.819 1654.99C621.106 1664.22 619.249 1674.45 619.249 1685.71C619.249 1696.73 621.104 1706.86 624.819 1716.09C628.534 1725.32 633.823 1733.36 640.686 1740.23C647.549 1747.09 655.651 1752.32 664.99 1755.92C674.329 1759.52 684.626 1761.33 695.88 1761.33C706.682 1761.33 717.203 1759.58 727.441 1756.09C737.682 1752.61 747.642 1746.7 757.318 1738.37L788.375 1777.87C775.545 1787.55 760.636 1794.97 743.646 1800.15C726.656 1805.32 709.722 1807.91 692.839 1807.91H692.842ZM738.416 1770.78V1682H788.378V1777.87L738.416 1770.78ZM944.002 1807.91C910.469 1807.91 884.251 1798.57 865.346 1779.89C846.441 1761.21 836.989 1734.55 836.989 1699.89V1567.56H891.678V1697.86C891.678 1720.37 896.292 1736.57 905.518 1746.47C914.743 1756.38 927.684 1761.33 944.339 1761.33C960.992 1761.33 973.933 1756.38 983.158 1746.47C992.386 1736.57 997 1720.37 997 1697.86V1567.56H1051.01V1699.89C1051.01 1734.55 1041.56 1761.21 1022.66 1779.89C1003.75 1798.57 977.534 1807.91 944.002 1807.91Z" fill="#2567B1"/>
<path fill-rule="evenodd" clip-rule="evenodd" d="M1571.43 305.633C1612.29 305.633 1645.43 338.765 1645.43 379.632C1645.43 420.495 1612.3 453.625 1571.43 453.625C1530.57 453.625 1497.43 420.493 1497.43 379.632C1497.43 338.765 1530.57 305.633 1571.43 305.633Z" stroke="#828487" stroke-width="0.53376" stroke-miterlimit="22.9256"/>
<path d="M1535.15 405.931V361.585H1518.4V353.312H1561.29V361.585H1544.54V405.931H1535.15H1535.15ZM1568.37 405.931V353.315H1576.1L1598.19 391.726H1594.15L1615.89 353.315H1623.61L1623.68 405.931H1614.8L1614.73 367.824H1616.6L1598.12 399.919H1593.93L1575.15 367.824H1577.32V405.931H1568.36H1568.37Z" fill="#828487"/>
<path d="M79.24 2181.04C77.96 2191.84 77.32 2200.16 77.32 2206C77.32 2211.84 77.88 2216.08 79 2218.72C72.2 2216.96 67.56 2214.64 65.08 2211.76C62.6 2208.8 61.36 2205.12 61.36 2200.72C61.36 2196.24 61.96 2189.88 63.16 2181.64C54.6 2151.08 47.2 2131.12 40.96 2121.76C44.24 2119.68 47.68 2118.64 51.28 2118.64C53.2 2118.64 54.8 2118.84 56.08 2119.24C57.44 2119.56 58.76 2120.36 60.04 2121.64C61.32 2122.92 62.4 2124.56 63.28 2126.56C64.24 2128.56 65.28 2131.48 66.4 2135.32C68.32 2141.4 70.76 2151.8 73.72 2166.52L74.56 2171.2C81.92 2159.76 87.88 2148.96 92.44 2138.8C97.08 2128.64 99.8 2120.72 100.6 2115.04C106.6 2118.4 109.6 2122.96 109.6 2128.72C109.6 2134.4 99.48 2151.84 79.24 2181.04ZM151.172 2154.88C145.972 2154.88 141.332 2158.4 137.252 2165.44C133.172 2172.4 131.132 2179.36 131.132 2186.32C131.132 2200.88 134.892 2208.16 142.412 2208.16C147.772 2208.16 152.132 2204.68 155.492 2197.72C158.852 2190.68 160.532 2182.8 160.532 2174.08C160.532 2161.28 157.412 2154.88 151.172 2154.88ZM158.612 2146.12C163.412 2146.12 167.492 2148.48 170.852 2153.2C174.212 2157.92 175.892 2164.24 175.892 2172.16C175.892 2181.04 174.092 2189.2 170.492 2196.64C166.492 2205.04 160.812 2210.84 153.452 2214.04C149.292 2215.88 144.732 2216.8 139.772 2216.8C132.812 2216.8 126.732 2214.12 121.532 2208.76C116.412 2203.32 113.852 2195.56 113.852 2185.48C113.852 2175.32 116.332 2166.4 121.292 2158.72C126.252 2150.96 132.812 2146.08 140.972 2144.08C141.852 2144.08 142.652 2144.36 143.372 2144.92C144.172 2145.4 144.572 2145.92 144.572 2146.48C136.492 2152.08 131.652 2159.88 130.052 2169.88C131.732 2165.4 133.772 2161.52 136.172 2158.24C138.652 2154.96 141.212 2152.48 143.852 2150.8C148.892 2147.68 153.812 2146.12 158.612 2146.12ZM234.114 2145.52C238.274 2145.52 241.434 2146.28 243.594 2147.8C245.754 2149.32 246.834 2152.12 246.834 2156.2C246.834 2157.48 246.074 2163.12 244.554 2173.12C243.034 2183.04 242.274 2191.56 242.274 2198.68C242.274 2205.8 243.034 2212.08 244.554 2217.52C238.554 2215.6 234.394 2212.88 232.074 2209.36C229.754 2205.84 228.594 2201.48 228.594 2196.28C228.594 2194.28 229.034 2189.76 229.914 2182.72C227.434 2191.84 223.634 2199.52 218.514 2205.76C213.474 2211.92 208.714 2215 204.234 2215C195.034 2215 190.434 2208.36 190.434 2195.08C190.434 2190.68 191.074 2184.56 192.354 2176.72C193.714 2168.8 194.394 2162.8 194.394 2158.72C194.394 2154.64 193.834 2150.52 192.714 2146.36C199.354 2146.36 204.154 2147.24 207.114 2149C210.154 2150.68 211.674 2154.08 211.674 2159.2C211.674 2161.92 210.834 2167.32 209.154 2175.4C207.474 2183.48 206.634 2189.56 206.634 2193.64C206.634 2199.56 208.234 2202.52 211.434 2202.52C213.034 2202.52 214.874 2201.44 216.954 2199.28C219.034 2197.04 221.034 2194.12 222.954 2190.52C224.874 2186.84 226.474 2182.28 227.754 2176.84C229.114 2171.32 229.794 2165.76 229.794 2160.16C229.794 2154.48 229.554 2149.68 229.074 2145.76C231.474 2145.6 233.154 2145.52 234.114 2145.52ZM333.897 2154.4C339.017 2150.56 344.057 2148.64 349.017 2148.64C353.977 2148.64 358.057 2150.64 361.257 2154.64C364.537 2158.56 366.177 2164.28 366.177 2171.8C366.177 2183.8 362.897 2194 356.337 2202.4C349.777 2210.8 341.897 2215 332.697 2215C329.417 2215 326.097 2214.36 322.737 2213.08C330.577 2211.24 336.817 2206.16 341.457 2197.84C346.097 2189.52 348.417 2181.24 348.417 2173C348.417 2169.16 347.697 2166.04 346.257 2163.64C344.897 2161.24 342.937 2160.04 340.377 2160.04C335.497 2160.04 331.177 2163 327.417 2168.92C323.657 2174.84 320.777 2182.96 318.777 2193.28C316.777 2203.52 315.777 2214.2 315.777 2225.32C315.777 2236.52 316.577 2246.24 318.177 2254.48C311.617 2254.24 306.737 2253.16 303.537 2251.24C300.417 2249.4 298.857 2245.84 298.857 2240.56C298.857 2238.64 300.057 2228.52 302.457 2210.2C304.937 2191.8 306.177 2177.64 306.177 2167.72C306.177 2157.8 305.577 2149.44 304.377 2142.64C310.777 2144.24 315.177 2147.2 317.577 2151.52C320.057 2155.84 321.297 2162.16 321.297 2170.48C324.657 2163.6 328.857 2158.24 333.897 2154.4ZM424.427 2145.52C428.587 2145.52 431.747 2146.28 433.907 2147.8C436.067 2149.32 437.147 2152.12 437.147 2156.2C437.147 2157.48 436.387 2163.12 434.867 2173.12C433.347 2183.04 432.587 2191.56 432.587 2198.68C432.587 2205.8 433.347 2212.08 434.867 2217.52C428.867 2215.6 424.707 2212.88 422.387 2209.36C420.067 2205.84 418.907 2201.48 418.907 2196.28C418.907 2194.28 419.347 2189.76 420.227 2182.72C417.747 2191.84 413.947 2199.52 408.827 2205.76C403.787 2211.92 399.027 2215 394.547 2215C385.347 2215 380.747 2208.36 380.747 2195.08C380.747 2190.68 381.387 2184.56 382.667 2176.72C384.027 2168.8 384.707 2162.8 384.707 2158.72C384.707 2154.64 384.147 2150.52 383.027 2146.36C389.667 2146.36 394.467 2147.24 397.427 2149C400.467 2150.68 401.987 2154.08 401.987 2159.2C401.987 2161.92 401.147 2167.32 399.467 2175.4C397.787 2183.48 396.947 2189.56 396.947 2193.64C396.947 2199.56 398.547 2202.52 401.747 2202.52C403.347 2202.52 405.187 2201.44 407.267 2199.28C409.347 2197.04 411.347 2194.12 413.267 2190.52C415.187 2186.84 416.787 2182.28 418.067 2176.84C419.427 2171.32 420.107 2165.76 420.107 2160.16C420.107 2154.48 419.867 2149.68 419.387 2145.76C421.787 2145.6 423.467 2145.52 424.427 2145.52ZM479.08 2152.84C476.84 2152.84 474.84 2153.6 473.08 2155.12C471.32 2156.56 470.44 2158.64 470.44 2161.36C470.44 2164.08 471.36 2166.64 473.2 2169.04C475.12 2171.44 477.44 2173.56 480.16 2175.4C482.88 2177.16 485.6 2179 488.32 2180.92C491.12 2182.76 493.56 2185.08 495.64 2187.88C497.72 2190.6 498.88 2193.64 499.12 2197C499.12 2202.76 496.64 2207.6 491.68 2211.52C486.72 2215.44 480.56 2217.4 473.2 2217.4C465.84 2217.4 460.04 2215.92 455.8 2212.96C451.64 2210 449.56 2206.6 449.56 2202.76C449.56 2198.92 450.72 2195.84 453.04 2193.52C455.44 2191.12 458.4 2189.92 461.92 2189.92C463.76 2189.92 465.48 2190.24 467.08 2190.88C464.52 2193.6 463.24 2196.48 463.24 2199.52C463.24 2202.56 464.08 2205 465.76 2206.84C467.44 2208.68 469.72 2209.6 472.6 2209.6C475.48 2209.6 477.88 2208.88 479.8 2207.44C481.8 2205.92 482.8 2204 482.8 2201.68C482.8 2199.28 482.12 2197.16 480.76 2195.32C479.4 2193.48 477.68 2191.88 475.6 2190.52C473.6 2189.08 471.4 2187.48 469 2185.72C466.6 2183.96 464.36 2182.2 462.28 2180.44C460.28 2178.6 458.6 2176.32 457.24 2173.6C455.88 2170.8 455.2 2167.76 455.2 2164.48C455.2 2158.8 457.52 2154.16 462.16 2150.56C466.88 2146.88 472.72 2145.04 479.68 2145.04C486.72 2145.04 491.84 2146.4 495.04 2149.12C498.32 2151.84 499.96 2155.04 499.96 2158.72C499.96 2162.32 498.8 2165.4 496.48 2167.96C494.24 2170.52 491.32 2171.8 487.72 2171.8C485.96 2171.8 483.96 2171.44 481.72 2170.72C483.48 2169.2 484.84 2167.48 485.8 2165.56C486.76 2163.56 487.24 2161.6 487.24 2159.68C487.24 2157.76 486.44 2156.16 484.84 2154.88C483.24 2153.52 481.32 2152.84 479.08 2152.84ZM530.194 2177.92C532.834 2168.88 536.954 2161.28 542.554 2155.12C548.154 2148.88 553.354 2145.76 558.154 2145.76C563.034 2145.76 566.474 2147.24 568.474 2150.2C570.554 2153.08 571.594 2157.04 571.594 2162.08C571.594 2167.04 570.794 2174.04 569.194 2183.08C567.674 2192.12 566.914 2198.72 566.914 2202.88C566.914 2206.96 567.434 2209.96 568.474 2211.88C569.514 2213.72 571.274 2215.32 573.754 2216.68C572.714 2216.76 571.234 2216.8 569.314 2216.8C562.594 2216.8 557.794 2215.76 554.914 2213.68C552.114 2211.6 550.714 2207.96 550.714 2202.76C550.714 2199.8 551.514 2194.04 553.114 2185.48C554.714 2176.84 555.514 2170.4 555.514 2166.16C555.514 2160.88 553.914 2158.24 550.714 2158.24C548.794 2158.24 546.674 2159.32 544.354 2161.48C542.034 2163.64 539.794 2166.6 537.634 2170.36C535.554 2174.04 533.794 2178.8 532.354 2184.64C530.914 2190.48 530.194 2196.32 530.194 2202.16C530.194 2207.92 530.434 2212.2 530.914 2215C528.354 2215.16 526.674 2215.24 525.874 2215.24C521.314 2215.24 518.034 2214.48 516.034 2212.96C514.034 2211.36 513.034 2208.84 513.034 2205.4C513.034 2201.96 513.714 2195.4 515.074 2185.72C519.394 2155.96 521.554 2133.36 521.554 2117.92C521.554 2110.96 521.074 2106.28 520.114 2103.88C526.114 2105.48 530.194 2107.92 532.354 2111.2C534.594 2114.4 535.714 2118.96 535.714 2124.88C535.714 2128.88 534.914 2137.28 533.314 2150.08C531.794 2162.88 530.754 2172.16 530.194 2177.92ZM649.975 2173.6C648.695 2180.72 647.695 2187.04 646.975 2192.56C646.255 2198.08 645.895 2203.72 645.895 2209.48C645.895 2215.24 646.455 2219.36 647.575 2221.84C641.415 2220.24 637.175 2217.8 634.855 2214.52C632.535 2211.16 631.375 2206.44 631.375 2200.36C631.375 2195 632.215 2187.68 633.895 2178.4C635.575 2169.04 636.655 2162.72 637.135 2159.44C632.975 2160.16 628.535 2161.56 623.815 2163.64C623.655 2161.88 623.575 2160.56 623.575 2159.68C623.575 2155.44 624.855 2152.56 627.415 2151.04C629.975 2149.44 633.655 2148.6 638.455 2148.52C639.015 2142.52 639.295 2138.2 639.295 2135.56C639.295 2132.92 639.255 2130.72 639.175 2128.96C639.175 2127.2 639.175 2125.88 639.175 2125C644.455 2125.56 648.295 2127.16 650.695 2129.8C653.095 2132.36 654.295 2136.04 654.295 2140.84C654.295 2142.76 654.095 2145.44 653.695 2148.88C660.415 2148.72 665.335 2147.4 668.455 2144.92C668.615 2146.52 668.695 2147.72 668.695 2148.52C668.695 2152.36 668.015 2155.04 666.655 2156.56C665.295 2158 663.015 2158.72 659.815 2158.72C656.615 2158.72 654.175 2158.68 652.495 2158.6C652.095 2161.48 651.255 2166.48 649.975 2173.6ZM690.624 2177.92C693.264 2168.88 697.384 2161.28 702.984 2155.12C708.584 2148.88 713.784 2145.76 718.584 2145.76C723.464 2145.76 726.904 2147.24 728.904 2150.2C730.984 2153.08 732.024 2157.04 732.024 2162.08C732.024 2167.04 731.224 2174.04 729.624 2183.08C728.104 2192.12 727.344 2198.72 727.344 2202.88C727.344 2206.96 727.864 2209.96 728.904 2211.88C729.944 2213.72 731.704 2215.32 734.184 2216.68C733.144 2216.76 731.664 2216.8 729.744 2216.8C723.024 2216.8 718.224 2215.76 715.344 2213.68C712.544 2211.6 711.144 2207.96 711.144 2202.76C711.144 2199.8 711.944 2194.04 713.544 2185.48C715.144 2176.84 715.944 2170.4 715.944 2166.16C715.944 2160.88 714.344 2158.24 711.144 2158.24C709.224 2158.24 707.104 2159.32 704.784 2161.48C702.464 2163.64 700.224 2166.6 698.064 2170.36C695.984 2174.04 694.224 2178.8 692.784 2184.64C691.344 2190.48 690.624 2196.32 690.624 2202.16C690.624 2207.92 690.864 2212.2 691.344 2215C688.784 2215.16 687.104 2215.24 686.304 2215.24C681.744 2215.24 678.464 2214.48 676.464 2212.96C674.464 2211.36 673.464 2208.84 673.464 2205.4C673.464 2201.96 674.144 2195.4 675.504 2185.72C679.824 2155.96 681.984 2133.36 681.984 2117.92C681.984 2110.96 681.504 2106.28 680.544 2103.88C686.544 2105.48 690.624 2107.92 692.784 2111.2C695.024 2114.4 696.144 2118.96 696.144 2124.88C696.144 2128.88 695.344 2137.28 693.744 2150.08C692.224 2162.88 691.184 2172.16 690.624 2177.92ZM775.115 2185.48C771.275 2185.48 767.515 2185.04 763.835 2184.16C763.755 2184.96 763.715 2186.2 763.715 2187.88C763.715 2194.52 764.955 2199.52 767.435 2202.88C769.915 2206.24 772.875 2207.92 776.315 2207.92C779.755 2207.92 783.035 2206.88 786.155 2204.8C789.275 2202.72 791.995 2199.84 794.315 2196.16C797.195 2196.8 798.635 2198.28 798.635 2200.6C791.595 2211.4 782.515 2216.8 771.395 2216.8C764.675 2216.8 758.795 2214.24 753.755 2209.12C748.715 2203.92 746.195 2196.72 746.195 2187.52C746.195 2180.64 747.515 2174.12 750.155 2167.96C752.795 2161.72 756.995 2156.48 762.755 2152.24C768.515 2147.92 774.875 2145.76 781.835 2145.76C788.875 2145.76 794.035 2147.36 797.315 2150.56C800.595 2153.76 802.235 2157.96 802.235 2163.16C802.235 2170.68 799.595 2176.28 794.315 2179.96C789.115 2183.64 782.715 2185.48 775.115 2185.48ZM780.155 2153.2C776.075 2153.2 772.635 2155.72 769.835 2160.76C767.035 2165.8 765.195 2171.92 764.315 2179.12H766.115C773.075 2179.12 778.195 2177.32 781.475 2173.72C784.835 2170.12 786.515 2165.8 786.515 2160.76C786.515 2158.68 785.955 2156.92 784.835 2155.48C783.795 2153.96 782.235 2153.2 780.155 2153.2ZM857.153 2212C856.193 2210.4 855.593 2208.88 855.353 2207.44C855.113 2205.92 854.993 2203.6 854.993 2200.48C854.993 2197.36 856.313 2185.08 858.953 2163.64C861.673 2142.2 863.033 2127.48 863.033 2119.48C863.033 2111.48 862.553 2106.28 861.593 2103.88C867.593 2105.48 871.673 2107.92 873.833 2111.2C876.073 2114.4 877.193 2118.96 877.193 2124.88C877.193 2128.4 876.033 2139.84 873.713 2159.2C871.393 2178.56 870.233 2194.16 870.233 2206C870.233 2208.56 870.393 2212.16 870.713 2216.8C863.433 2216.48 858.913 2214.88 857.153 2212ZM893.253 2195.32C893.253 2191.96 893.893 2185.88 895.173 2177.08C896.453 2168.28 897.093 2161.44 897.093 2156.56C897.093 2151.68 896.853 2147.92 896.373 2145.28C898.133 2145.12 899.773 2145.04 901.293 2145.04C905.933 2145.04 909.133 2145.84 910.893 2147.44C912.733 2148.96 913.652 2151.6 913.652 2155.36C913.652 2156.56 912.653 2162.88 910.653 2174.32C908.733 2185.68 907.733 2195.08 907.653 2202.52C907.653 2209.88 908.133 2214.64 909.093 2216.8C902.853 2215.2 898.653 2212.8 896.493 2209.6C894.333 2206.32 893.253 2201.56 893.253 2195.32ZM909.573 2134.96C901.333 2134.96 897.213 2132.08 897.213 2126.32C897.213 2124.24 897.813 2121.4 899.013 2117.8C901.253 2117.48 903.213 2117.32 904.893 2117.32C913.133 2117.32 917.253 2120.2 917.253 2125.96C917.253 2128.04 916.653 2130.88 915.453 2134.48C913.213 2134.8 911.253 2134.96 909.573 2134.96ZM981.607 2202.28C981.607 2206.28 981.847 2210.52 982.327 2215C979.767 2215.16 978.087 2215.24 977.287 2215.24C972.807 2215.24 969.567 2214.48 967.567 2212.96C965.567 2211.36 964.567 2209.04 964.567 2206C964.567 2202.96 965.407 2196.72 967.087 2187.28C968.847 2177.76 969.727 2170.56 969.727 2165.68C969.727 2160.72 968.127 2158.24 964.927 2158.24C963.167 2158.24 961.247 2159.32 959.167 2161.48C957.087 2163.56 955.127 2166.44 953.287 2170.12C951.447 2173.72 949.887 2178.36 948.607 2184.04C947.407 2189.72 946.807 2195.2 946.807 2200.48C946.807 2205.68 947.047 2210.52 947.527 2215C944.967 2215.16 943.287 2215.24 942.487 2215.24C938.007 2215.24 934.767 2214.48 932.767 2212.96C930.767 2211.36 929.767 2208.72 929.767 2205.04C929.767 2204.16 930.567 2198.2 932.167 2187.16C933.847 2176.12 934.687 2167.4 934.687 2161C934.687 2154.52 934.007 2148.6 932.647 2143.24C938.567 2145.08 942.687 2147.72 945.007 2151.16C947.327 2154.6 948.487 2158.84 948.487 2163.88C948.487 2166.44 948.207 2169.68 947.647 2173.6C950.367 2165.6 954.127 2158.96 958.927 2153.68C963.807 2148.4 968.487 2145.76 972.967 2145.76C977.527 2145.76 980.807 2147.44 982.807 2150.8C984.887 2154.16 985.927 2159 985.927 2165.32C988.967 2159.48 992.447 2154.76 996.367 2151.16C1000.29 2147.56 1003.89 2145.76 1007.17 2145.76C1012.05 2145.76 1015.49 2147.24 1017.49 2150.2C1019.57 2153.08 1020.61 2157.04 1020.61 2162.08C1020.61 2167.04 1019.81 2174.04 1018.21 2183.08C1016.69 2192.12 1015.93 2198.72 1015.93 2202.88C1015.93 2206.96 1016.45 2209.96 1017.49 2211.88C1018.53 2213.72 1020.29 2215.32 1022.77 2216.68C1021.73 2216.76 1020.25 2216.8 1018.33 2216.8C1011.61 2216.8 1006.81 2215.76 1003.93 2213.68C1001.13 2211.6 999.727 2207.96 999.727 2202.76C999.727 2199.8 1000.53 2194.04 1002.13 2185.48C1003.73 2176.84 1004.53 2170.4 1004.53 2166.16C1004.53 2160.88 1002.93 2158.24 999.727 2158.24C997.327 2158.24 994.727 2160 991.927 2163.52C989.207 2166.96 986.807 2172.2 984.727 2179.24C982.647 2186.2 981.607 2193.88 981.607 2202.28ZM1039.15 2195.32C1039.15 2191.96 1039.79 2185.88 1041.07 2177.08C1042.35 2168.28 1042.99 2161.44 1042.99 2156.56C1042.99 2151.68 1042.75 2147.92 1042.27 2145.28C1044.03 2145.12 1045.67 2145.04 1047.19 2145.04C1051.83 2145.04 1055.03 2145.84 1056.79 2147.44C1058.63 2148.96 1059.55 2151.6 1059.55 2155.36C1059.55 2156.56 1058.55 2162.88 1056.55 2174.32C1054.63 2185.68 1053.63 2195.08 1053.55 2202.52C1053.55 2209.88 1054.03 2214.64 1054.99 2216.8C1048.75 2215.2 1044.55 2212.8 1042.39 2209.6C1040.23 2206.32 1039.15 2201.56 1039.15 2195.32ZM1055.47 2134.96C1047.23 2134.96 1043.11 2132.08 1043.11 2126.32C1043.11 2124.24 1043.71 2121.4 1044.91 2117.8C1047.15 2117.48 1049.11 2117.32 1050.79 2117.32C1059.03 2117.32 1063.15 2120.2 1063.15 2125.96C1063.15 2128.04 1062.55 2130.88 1061.35 2134.48C1059.11 2134.8 1057.15 2134.96 1055.47 2134.96ZM1097.87 2173.6C1096.59 2180.72 1095.59 2187.04 1094.87 2192.56C1094.15 2198.08 1093.79 2203.72 1093.79 2209.48C1093.79 2215.24 1094.35 2219.36 1095.47 2221.84C1089.31 2220.24 1085.07 2217.8 1082.75 2214.52C1080.43 2211.16 1079.27 2206.44 1079.27 2200.36C1079.27 2195 1080.11 2187.68 1081.79 2178.4C1083.47 2169.04 1084.55 2162.72 1085.03 2159.44C1080.87 2160.16 1076.43 2161.56 1071.71 2163.64C1071.55 2161.88 1071.47 2160.56 1071.47 2159.68C1071.47 2155.44 1072.75 2152.56 1075.31 2151.04C1077.87 2149.44 1081.55 2148.6 1086.35 2148.52C1086.91 2142.52 1087.19 2138.2 1087.19 2135.56C1087.19 2132.92 1087.15 2130.72 1087.07 2128.96C1087.07 2127.2 1087.07 2125.88 1087.07 2125C1092.35 2125.56 1096.19 2127.16 1098.59 2129.8C1100.99 2132.36 1102.19 2136.04 1102.19 2140.84C1102.19 2142.76 1101.99 2145.44 1101.59 2148.88C1108.31 2148.72 1113.23 2147.4 1116.35 2144.92C1116.51 2146.52 1116.59 2147.72 1116.59 2148.52C1116.59 2152.36 1115.91 2155.04 1114.55 2156.56C1113.19 2158 1110.91 2158.72 1107.71 2158.72C1104.51 2158.72 1102.07 2158.68 1100.39 2158.6C1099.99 2161.48 1099.15 2166.48 1097.87 2173.6ZM1147.63 2152.84C1145.39 2152.84 1143.39 2153.6 1141.63 2155.12C1139.87 2156.56 1138.99 2158.64 1138.99 2161.36C1138.99 2164.08 1139.91 2166.64 1141.75 2169.04C1143.67 2171.44 1145.99 2173.56 1148.71 2175.4C1151.43 2177.16 1154.15 2179 1156.87 2180.92C1159.67 2182.76 1162.11 2185.08 1164.19 2187.88C1166.27 2190.6 1167.43 2193.64 1167.67 2197C1167.67 2202.76 1165.19 2207.6 1160.23 2211.52C1155.27 2215.44 1149.11 2217.4 1141.75 2217.4C1134.39 2217.4 1128.59 2215.92 1124.35 2212.96C1120.19 2210 1118.11 2206.6 1118.11 2202.76C1118.11 2198.92 1119.27 2195.84 1121.59 2193.52C1123.99 2191.12 1126.95 2189.92 1130.47 2189.92C1132.31 2189.92 1134.03 2190.24 1135.63 2190.88C1133.07 2193.6 1131.79 2196.48 1131.79 2199.52C1131.79 2202.56 1132.63 2205 1134.31 2206.84C1135.99 2208.68 1138.27 2209.6 1141.15 2209.6C1144.03 2209.6 1146.43 2208.88 1148.35 2207.44C1150.35 2205.92 1151.35 2204 1151.35 2201.68C1151.35 2199.28 1150.67 2197.16 1149.31 2195.32C1147.95 2193.48 1146.23 2191.88 1144.15 2190.52C1142.15 2189.08 1139.95 2187.48 1137.55 2185.72C1135.15 2183.96 1132.91 2182.2 1130.83 2180.44C1128.83 2178.6 1127.15 2176.32 1125.79 2173.6C1124.43 2170.8 1123.75 2167.76 1123.75 2164.48C1123.75 2158.8 1126.07 2154.16 1130.71 2150.56C1135.43 2146.88 1141.27 2145.04 1148.23 2145.04C1155.27 2145.04 1160.39 2146.4 1163.59 2149.12C1166.87 2151.84 1168.51 2155.04 1168.51 2158.72C1168.51 2162.32 1167.35 2165.4 1165.03 2167.96C1162.79 2170.52 1159.87 2171.8 1156.27 2171.8C1154.51 2171.8 1152.51 2171.44 1150.27 2170.72C1152.03 2169.2 1153.39 2167.48 1154.35 2165.56C1155.31 2163.56 1155.79 2161.6 1155.79 2159.68C1155.79 2157.76 1154.99 2156.16 1153.39 2154.88C1151.79 2153.52 1149.87 2152.84 1147.63 2152.84ZM1188.19 2197.48C1194.11 2197.48 1197.07 2199.96 1197.07 2204.92C1197.07 2210.12 1195.19 2215.08 1191.43 2219.8C1187.67 2224.6 1182.19 2228.88 1174.99 2232.64L1171.51 2227.24C1177.83 2221.64 1180.99 2215.16 1180.99 2207.8C1180.99 2205.16 1180.39 2202.16 1179.19 2198.8C1182.31 2197.92 1185.31 2197.48 1188.19 2197.48ZM1318.88 2215C1318.32 2215.24 1316.76 2215.56 1314.2 2215.96C1311.72 2216.44 1309.36 2216.68 1307.12 2216.68C1304.96 2216.68 1303.88 2216.08 1303.88 2214.88C1302.84 2210.64 1300.28 2195.48 1296.2 2169.4C1285.16 2193.96 1278.6 2209.16 1276.52 2215C1275.96 2215.24 1274.4 2215.56 1271.84 2215.96C1269.28 2216.44 1266.92 2216.68 1264.76 2216.68C1262.6 2216.68 1261.52 2216.08 1261.52 2214.88C1260.32 2209.84 1258.64 2200.12 1256.48 2185.72C1254.32 2171.32 1252.08 2158.24 1249.76 2146.48C1247.44 2134.72 1245.04 2126.92 1242.56 2123.08C1246.96 2121 1250.56 2119.96 1253.36 2119.96C1256.24 2119.96 1258.32 2120.48 1259.6 2121.52C1260.88 2122.56 1262.04 2124.84 1263.08 2128.36C1264.2 2131.8 1265.2 2136.64 1266.08 2142.88C1266.96 2149.04 1267.72 2154.88 1268.36 2160.4C1269.08 2165.84 1269.44 2168.6 1269.44 2168.68C1269.44 2168.76 1269.48 2169.16 1269.56 2169.88C1269.64 2170.52 1270.24 2174.88 1271.36 2182.96C1272.56 2190.96 1273.32 2196.12 1273.64 2198.44C1279.8 2185.24 1286.16 2168.92 1292.72 2149.48C1290.16 2136.2 1287.56 2127.4 1284.92 2123.08C1289.32 2121 1292.92 2119.96 1295.72 2119.96C1298.6 2119.96 1300.68 2120.48 1301.96 2121.52C1303.24 2122.56 1304.4 2124.84 1305.44 2128.36C1306.56 2131.8 1307.56 2136.64 1308.44 2142.88C1309.32 2149.04 1310.08 2154.88 1310.72 2160.4C1311.44 2165.84 1311.8 2168.6 1311.8 2168.68C1311.8 2168.76 1311.84 2169.16 1311.92 2169.88C1312 2170.52 1312.6 2174.88 1313.72 2182.96C1314.92 2190.96 1315.68 2196.12 1316 2198.44C1321.6 2183.88 1327.28 2168.16 1333.04 2151.28C1338.8 2134.4 1341.84 2123.36 1342.16 2118.16C1350.8 2119.92 1355.12 2122.72 1355.12 2126.56C1355.12 2131.76 1346.88 2152.44 1330.4 2188.6C1324 2202.76 1320.16 2211.56 1318.88 2215ZM1391.4 2185.48C1387.56 2185.48 1383.8 2185.04 1380.12 2184.16C1380.04 2184.96 1380 2186.2 1380 2187.88C1380 2194.52 1381.24 2199.52 1383.72 2202.88C1386.2 2206.24 1389.16 2207.92 1392.6 2207.92C1396.04 2207.92 1399.32 2206.88 1402.44 2204.8C1405.56 2202.72 1408.28 2199.84 1410.6 2196.16C1413.48 2196.8 1414.92 2198.28 1414.92 2200.6C1407.88 2211.4 1398.8 2216.8 1387.68 2216.8C1380.96 2216.8 1375.08 2214.24 1370.04 2209.12C1365 2203.92 1362.48 2196.72 1362.48 2187.52C1362.48 2180.64 1363.8 2174.12 1366.44 2167.96C1369.08 2161.72 1373.28 2156.48 1379.04 2152.24C1384.8 2147.92 1391.16 2145.76 1398.12 2145.76C1405.16 2145.76 1410.32 2147.36 1413.6 2150.56C1416.88 2153.76 1418.52 2157.96 1418.52 2163.16C1418.52 2170.68 1415.88 2176.28 1410.6 2179.96C1405.4 2183.64 1399 2185.48 1391.4 2185.48ZM1396.44 2153.2C1392.36 2153.2 1388.92 2155.72 1386.12 2160.76C1383.32 2165.8 1381.48 2171.92 1380.6 2179.12H1382.4C1389.36 2179.12 1394.48 2177.32 1397.76 2173.72C1401.12 2170.12 1402.8 2165.8 1402.8 2160.76C1402.8 2158.68 1402.24 2156.92 1401.12 2155.48C1400.08 2153.96 1398.52 2153.2 1396.44 2153.2ZM1523.48 2202.28C1523.48 2206.28 1523.72 2210.52 1524.2 2215C1521.64 2215.16 1519.96 2215.24 1519.16 2215.24C1514.68 2215.24 1511.44 2214.48 1509.44 2212.96C1507.44 2211.36 1506.44 2209.04 1506.44 2206C1506.44 2202.96 1507.28 2196.72 1508.96 2187.28C1510.72 2177.76 1511.6 2170.56 1511.6 2165.68C1511.6 2160.72 1510 2158.24 1506.8 2158.24C1505.04 2158.24 1503.12 2159.32 1501.04 2161.48C1498.96 2163.56 1497 2166.44 1495.16 2170.12C1493.32 2173.72 1491.76 2178.36 1490.48 2184.04C1489.28 2189.72 1488.68 2195.2 1488.68 2200.48C1488.68 2205.68 1488.92 2210.52 1489.4 2215C1486.84 2215.16 1485.16 2215.24 1484.36 2215.24C1479.88 2215.24 1476.64 2214.48 1474.64 2212.96C1472.64 2211.36 1471.64 2208.72 1471.64 2205.04C1471.64 2204.16 1472.44 2198.2 1474.04 2187.16C1475.72 2176.12 1476.56 2167.4 1476.56 2161C1476.56 2154.52 1475.88 2148.6 1474.52 2143.24C1480.44 2145.08 1484.56 2147.72 1486.88 2151.16C1489.2 2154.6 1490.36 2158.84 1490.36 2163.88C1490.36 2166.44 1490.08 2169.68 1489.52 2173.6C1492.24 2165.6 1496 2158.96 1500.8 2153.68C1505.68 2148.4 1510.36 2145.76 1514.84 2145.76C1519.4 2145.76 1522.68 2147.44 1524.68 2150.8C1526.76 2154.16 1527.8 2159 1527.8 2165.32C1530.84 2159.48 1534.32 2154.76 1538.24 2151.16C1542.16 2147.56 1545.76 2145.76 1549.04 2145.76C1553.92 2145.76 1557.36 2147.24 1559.36 2150.2C1561.44 2153.08 1562.48 2157.04 1562.48 2162.08C1562.48 2167.04 1561.68 2174.04 1560.08 2183.08C1558.56 2192.12 1557.8 2198.72 1557.8 2202.88C1557.8 2206.96 1558.32 2209.96 1559.36 2211.88C1560.4 2213.72 1562.16 2215.32 1564.64 2216.68C1563.6 2216.76 1562.12 2216.8 1560.2 2216.8C1553.48 2216.8 1548.68 2215.76 1545.8 2213.68C1543 2211.6 1541.6 2207.96 1541.6 2202.76C1541.6 2199.8 1542.4 2194.04 1544 2185.48C1545.6 2176.84 1546.4 2170.4 1546.4 2166.16C1546.4 2160.88 1544.8 2158.24 1541.6 2158.24C1539.2 2158.24 1536.6 2160 1533.8 2163.52C1531.08 2166.96 1528.68 2172.2 1526.6 2179.24C1524.52 2186.2 1523.48 2193.88 1523.48 2202.28ZM1605.51 2185.48C1601.67 2185.48 1597.91 2185.04 1594.23 2184.16C1594.15 2184.96 1594.11 2186.2 1594.11 2187.88C1594.11 2194.52 1595.35 2199.52 1597.83 2202.88C1600.31 2206.24 1603.27 2207.92 1606.71 2207.92C1610.15 2207.92 1613.43 2206.88 1616.55 2204.8C1619.67 2202.72 1622.39 2199.84 1624.71 2196.16C1627.59 2196.8 1629.03 2198.28 1629.03 2200.6C1621.99 2211.4 1612.91 2216.8 1601.79 2216.8C1595.07 2216.8 1589.19 2214.24 1584.15 2209.12C1579.11 2203.92 1576.59 2196.72 1576.59 2187.52C1576.59 2180.64 1577.91 2174.12 1580.55 2167.96C1583.19 2161.72 1587.39 2156.48 1593.15 2152.24C1598.91 2147.92 1605.27 2145.76 1612.23 2145.76C1619.27 2145.76 1624.43 2147.36 1627.71 2150.56C1630.99 2153.76 1632.63 2157.96 1632.63 2163.16C1632.63 2170.68 1629.99 2176.28 1624.71 2179.96C1619.51 2183.64 1613.11 2185.48 1605.51 2185.48ZM1610.55 2153.2C1606.47 2153.2 1603.03 2155.72 1600.23 2160.76C1597.43 2165.8 1595.59 2171.92 1594.71 2179.12H1596.51C1603.47 2179.12 1608.59 2177.32 1611.87 2173.72C1615.23 2170.12 1616.91 2165.8 1616.91 2160.76C1616.91 2158.68 1616.35 2156.92 1615.23 2155.48C1614.19 2153.96 1612.63 2153.2 1610.55 2153.2ZM1660.05 2192.32C1660.05 2196.08 1660.73 2199.16 1662.09 2201.56C1663.53 2203.88 1665.53 2205.04 1668.09 2205.04C1671.85 2205.04 1675.41 2202.84 1678.77 2198.44C1682.21 2194.04 1684.93 2188.4 1686.93 2181.52C1689.01 2174.64 1690.05 2168.12 1690.05 2161.96C1690.05 2155.72 1689.81 2150.68 1689.33 2146.84C1691.73 2146.68 1693.41 2146.6 1694.37 2146.6C1698.45 2146.6 1701.53 2147.36 1703.61 2148.88C1705.69 2150.4 1706.73 2153.12 1706.73 2157.04C1706.73 2158.56 1705.77 2164.76 1703.85 2175.64C1701.93 2186.44 1700.97 2195.12 1700.97 2201.68C1700.97 2208.16 1702.21 2213.92 1704.69 2218.96C1698.69 2217.92 1694.29 2215.72 1691.49 2212.36C1688.69 2208.92 1687.29 2204 1687.29 2197.6C1687.29 2196.48 1687.45 2194.32 1687.77 2191.12C1685.61 2198.72 1681.77 2204.84 1676.25 2209.48C1670.73 2214.12 1665.29 2216.44 1659.93 2216.44C1654.65 2216.44 1650.37 2214.48 1647.09 2210.56C1643.89 2206.56 1642.29 2200.92 1642.29 2193.64C1642.29 2186.36 1643.57 2179.32 1646.13 2172.52C1648.77 2165.64 1652.69 2159.84 1657.89 2155.12C1663.09 2150.32 1668.89 2147.92 1675.29 2147.92C1678.97 2147.92 1682.73 2148.8 1686.57 2150.56C1678.49 2153.44 1672.05 2159.12 1667.25 2167.6C1662.45 2176 1660.05 2184.24 1660.05 2192.32ZM1747.99 2152.84C1745.75 2152.84 1743.75 2153.6 1741.99 2155.12C1740.23 2156.56 1739.35 2158.64 1739.35 2161.36C1739.35 2164.08 1740.27 2166.64 1742.11 2169.04C1744.03 2171.44 1746.35 2173.56 1749.07 2175.4C1751.79 2177.16 1754.51 2179 1757.23 2180.92C1760.03 2182.76 1762.47 2185.08 1764.55 2187.88C1766.63 2190.6 1767.79 2193.64 1768.03 2197C1768.03 2202.76 1765.55 2207.6 1760.59 2211.52C1755.63 2215.44 1749.47 2217.4 1742.11 2217.4C1734.75 2217.4 1728.95 2215.92 1724.71 2212.96C1720.55 2210 1718.47 2206.6 1718.47 2202.76C1718.47 2198.92 1719.63 2195.84 1721.95 2193.52C1724.35 2191.12 1727.31 2189.92 1730.83 2189.92C1732.67 2189.92 1734.39 2190.24 1735.99 2190.88C1733.43 2193.6 1732.15 2196.48 1732.15 2199.52C1732.15 2202.56 1732.99 2205 1734.67 2206.84C1736.35 2208.68 1738.63 2209.6 1741.51 2209.6C1744.39 2209.6 1746.79 2208.88 1748.71 2207.44C1750.71 2205.92 1751.71 2204 1751.71 2201.68C1751.71 2199.28 1751.03 2197.16 1749.67 2195.32C1748.31 2193.48 1746.59 2191.88 1744.51 2190.52C1742.51 2189.08 1740.31 2187.48 1737.91 2185.72C1735.51 2183.96 1733.27 2182.2 1731.19 2180.44C1729.19 2178.6 1727.51 2176.32 1726.15 2173.6C1724.79 2170.8 1724.11 2167.76 1724.11 2164.48C1724.11 2158.8 1726.43 2154.16 1731.07 2150.56C1735.79 2146.88 1741.63 2145.04 1748.59 2145.04C1755.63 2145.04 1760.75 2146.4 1763.95 2149.12C1767.23 2151.84 1768.87 2155.04 1768.87 2158.72C1768.87 2162.32 1767.71 2165.4 1765.39 2167.96C1763.15 2170.52 1760.23 2171.8 1756.63 2171.8C1754.87 2171.8 1752.87 2171.44 1750.63 2170.72C1752.39 2169.2 1753.75 2167.48 1754.71 2165.56C1755.67 2163.56 1756.15 2161.6 1756.15 2159.68C1756.15 2157.76 1755.35 2156.16 1753.75 2154.88C1752.15 2153.52 1750.23 2152.84 1747.99 2152.84ZM1826.34 2145.52C1830.5 2145.52 1833.66 2146.28 1835.82 2147.8C1837.98 2149.32 1839.06 2152.12 1839.06 2156.2C1839.06 2157.48 1838.3 2163.12 1836.78 2173.12C1835.26 2183.04 1834.5 2191.56 1834.5 2198.68C1834.5 2205.8 1835.26 2212.08 1836.78 2217.52C1830.78 2215.6 1826.62 2212.88 1824.3 2209.36C1821.98 2205.84 1820.82 2201.48 1820.82 2196.28C1820.82 2194.28 1821.26 2189.76 1822.14 2182.72C1819.66 2191.84 1815.86 2199.52 1810.74 2205.76C1805.7 2211.92 1800.94 2215 1796.46 2215C1787.26 2215 1782.66 2208.36 1782.66 2195.08C1782.66 2190.68 1783.3 2184.56 1784.58 2176.72C1785.94 2168.8 1786.62 2162.8 1786.62 2158.72C1786.62 2154.64 1786.06 2150.52 1784.94 2146.36C1791.58 2146.36 1796.38 2147.24 1799.34 2149C1802.38 2150.68 1803.9 2154.08 1803.9 2159.2C1803.9 2161.92 1803.06 2167.32 1801.38 2175.4C1799.7 2183.48 1798.86 2189.56 1798.86 2193.64C1798.86 2199.56 1800.46 2202.52 1803.66 2202.52C1805.26 2202.52 1807.1 2201.44 1809.18 2199.28C1811.26 2197.04 1813.26 2194.12 1815.18 2190.52C1817.1 2186.84 1818.7 2182.28 1819.98 2176.84C1821.34 2171.32 1822.02 2165.76 1822.02 2160.16C1822.02 2154.48 1821.78 2149.68 1821.3 2145.76C1823.7 2145.6 1825.38 2145.52 1826.34 2145.52ZM1872.95 2176C1875.83 2165.6 1879.27 2157.96 1883.27 2153.08C1887.35 2148.12 1891.11 2145.64 1894.55 2145.64C1898.07 2145.64 1900.71 2146.96 1902.47 2149.6C1904.23 2152.16 1905.11 2155.52 1905.11 2159.68C1905.11 2163.76 1903.87 2167.52 1901.39 2170.96C1898.99 2174.4 1895.67 2176.12 1891.43 2176.12C1890.31 2176.12 1888.99 2175.8 1887.47 2175.16C1889.95 2172.04 1891.19 2168.28 1891.19 2163.88C1891.19 2161.32 1890.15 2160.04 1888.07 2160.04C1886.55 2160.04 1884.91 2161.12 1883.15 2163.28C1881.39 2165.36 1879.71 2168.28 1878.11 2172.04C1876.51 2175.72 1875.15 2180.48 1874.03 2186.32C1872.99 2192.08 1872.47 2198.24 1872.47 2204.8C1872.47 2205.6 1872.67 2209 1873.07 2215C1870.51 2215.16 1868.87 2215.24 1868.15 2215.24C1863.59 2215.24 1860.31 2214.44 1858.31 2212.84C1856.31 2211.24 1855.31 2208.6 1855.31 2204.92C1855.31 2203.32 1856.15 2197.16 1857.83 2186.44C1859.51 2175.72 1860.35 2167.2 1860.35 2160.88C1860.35 2154.48 1859.67 2148.6 1858.31 2143.24C1864.15 2145.08 1868.23 2147.72 1870.55 2151.16C1872.87 2154.52 1874.03 2158.48 1874.03 2163.04C1874.03 2167.52 1873.67 2171.84 1872.95 2176ZM1937.38 2185.48C1933.54 2185.48 1929.78 2185.04 1926.1 2184.16C1926.02 2184.96 1925.98 2186.2 1925.98 2187.88C1925.98 2194.52 1927.22 2199.52 1929.7 2202.88C1932.18 2206.24 1935.14 2207.92 1938.58 2207.92C1942.02 2207.92 1945.3 2206.88 1948.42 2204.8C1951.54 2202.72 1954.26 2199.84 1956.58 2196.16C1959.46 2196.8 1960.9 2198.28 1960.9 2200.6C1953.86 2211.4 1944.78 2216.8 1933.66 2216.8C1926.94 2216.8 1921.06 2214.24 1916.02 2209.12C1910.98 2203.92 1908.46 2196.72 1908.46 2187.52C1908.46 2180.64 1909.78 2174.12 1912.42 2167.96C1915.06 2161.72 1919.26 2156.48 1925.02 2152.24C1930.78 2147.92 1937.14 2145.76 1944.1 2145.76C1951.14 2145.76 1956.3 2147.36 1959.58 2150.56C1962.86 2153.76 1964.5 2157.96 1964.5 2163.16C1964.5 2170.68 1961.86 2176.28 1956.58 2179.96C1951.38 2183.64 1944.98 2185.48 1937.38 2185.48ZM1942.42 2153.2C1938.34 2153.2 1934.9 2155.72 1932.1 2160.76C1929.3 2165.8 1927.46 2171.92 1926.58 2179.12H1928.38C1935.34 2179.12 1940.46 2177.32 1943.74 2173.72C1947.1 2170.12 1948.78 2165.8 1948.78 2160.76C1948.78 2158.68 1948.22 2156.92 1947.1 2155.48C1946.06 2153.96 1944.5 2153.2 1942.42 2153.2ZM2019.66 2195.32C2019.66 2191.96 2020.3 2185.88 2021.58 2177.08C2022.86 2168.28 2023.5 2161.44 2023.5 2156.56C2023.5 2151.68 2023.26 2147.92 2022.78 2145.28C2024.54 2145.12 2026.18 2145.04 2027.7 2145.04C2032.34 2145.04 2035.54 2145.84 2037.3 2147.44C2039.14 2148.96 2040.06 2151.6 2040.06 2155.36C2040.06 2156.56 2039.06 2162.88 2037.06 2174.32C2035.14 2185.68 2034.14 2195.08 2034.06 2202.52C2034.06 2209.88 2034.54 2214.64 2035.5 2216.8C2029.26 2215.2 2025.06 2212.8 2022.9 2209.6C2020.74 2206.32 2019.66 2201.56 2019.66 2195.32ZM2035.98 2134.96C2027.74 2134.96 2023.62 2132.08 2023.62 2126.32C2023.62 2124.24 2024.22 2121.4 2025.42 2117.8C2027.66 2117.48 2029.62 2117.32 2031.3 2117.32C2039.54 2117.32 2043.66 2120.2 2043.66 2125.96C2043.66 2128.04 2043.06 2130.88 2041.86 2134.48C2039.62 2134.8 2037.66 2134.96 2035.98 2134.96ZM2078.37 2173.6C2077.09 2180.72 2076.09 2187.04 2075.37 2192.56C2074.65 2198.08 2074.29 2203.72 2074.29 2209.48C2074.29 2215.24 2074.85 2219.36 2075.97 2221.84C2069.81 2220.24 2065.57 2217.8 2063.25 2214.52C2060.93 2211.16 2059.77 2206.44 2059.77 2200.36C2059.77 2195 2060.61 2187.68 2062.29 2178.4C2063.97 2169.04 2065.05 2162.72 2065.53 2159.44C2061.37 2160.16 2056.93 2161.56 2052.21 2163.64C2052.05 2161.88 2051.97 2160.56 2051.97 2159.68C2051.97 2155.44 2053.25 2152.56 2055.81 2151.04C2058.37 2149.44 2062.05 2148.6 2066.85 2148.52C2067.41 2142.52 2067.69 2138.2 2067.69 2135.56C2067.69 2132.92 2067.65 2130.72 2067.57 2128.96C2067.57 2127.2 2067.57 2125.88 2067.57 2125C2072.85 2125.56 2076.69 2127.16 2079.09 2129.8C2081.49 2132.36 2082.69 2136.04 2082.69 2140.84C2082.69 2142.76 2082.49 2145.44 2082.09 2148.88C2088.81 2148.72 2093.73 2147.4 2096.85 2144.92C2097.01 2146.52 2097.09 2147.72 2097.09 2148.52C2097.09 2152.36 2096.41 2155.04 2095.05 2156.56C2093.69 2158 2091.41 2158.72 2088.21 2158.72C2085.01 2158.72 2082.57 2158.68 2080.89 2158.6C2080.49 2161.48 2079.65 2166.48 2078.37 2173.6ZM2106.54 2216.32C2100.62 2216.32 2097.66 2213.84 2097.66 2208.88C2097.66 2207.28 2098.38 2203.88 2099.82 2198.68C2102.62 2197.88 2105.46 2197.48 2108.34 2197.48C2114.26 2197.48 2117.22 2199.96 2117.22 2204.92C2117.22 2206.52 2116.5 2209.92 2115.06 2215.12C2112.26 2215.92 2109.42 2216.32 2106.54 2216.32ZM2131.5 2216.32C2125.58 2216.32 2122.62 2213.84 2122.62 2208.88C2122.62 2207.28 2123.34 2203.88 2124.78 2198.68C2127.58 2197.88 2130.42 2197.48 2133.3 2197.48C2139.22 2197.48 2142.18 2199.96 2142.18 2204.92C2142.18 2206.52 2141.46 2209.92 2140.02 2215.12C2137.22 2215.92 2134.38 2216.32 2131.5 2216.32ZM2156.46 2216.32C2150.54 2216.32 2147.58 2213.84 2147.58 2208.88C2147.58 2207.28 2148.3 2203.88 2149.74 2198.68C2152.54 2197.88 2155.38 2197.48 2158.26 2197.48C2164.18 2197.48 2167.14 2199.96 2167.14 2204.92C2167.14 2206.52 2166.42 2209.92 2164.98 2215.12C2162.18 2215.92 2159.34 2216.32 2156.46 2216.32Z" fill="#2567B1"/>
</svg>
