<svg width="573" height="490" viewBox="0 0 573 490" fill="none" xmlns="http://www.w3.org/2000/svg">
<g clip-path="url(#clip0_2856_9)">
<path d="M-161.216 -188.64L440.165 -79.9202L-61.7557 414.342L-161.216 -188.64Z" fill="#E8EBED"/>
<rect x="51" y="263.355" width="50" height="50" transform="rotate(-45 51 263.355)" fill="#2565B1"/>
<rect x="203.121" y="173.355" width="47" height="47" transform="rotate(-45 203.121 173.355)" stroke="#2565B1" stroke-width="3"/>
<path d="M436.994 -20.5952L297.166 125.916L155.249 -18.5714L436.994 -20.5952Z" stroke="#2565B1" stroke-width="3"/>
<path d="M-7.07384 304.327L77.4048 388.907L-7.90642 472.647L-7.07384 304.327Z" fill="#547BA8" fill-opacity="0.02" stroke="#2565B1" stroke-width="3"/>
<path d="M333.182 136.073L187.698 -12.0459L476.523 -14.1206L333.182 136.073Z" fill="#2565B1"/>
<path d="M86.5354 356.918L-2.42421 444.239L-1.55602 268.721L86.5354 356.918Z" fill="#2565B1"/>
<path d="M86.5354 356.918L-2.42421 444.239L-1.55602 268.721L86.5354 356.918Z" fill="#2565B1"/>
<path d="M95.3335 138.787V124.566H89.7227V121.261H105.004V124.566H99.392V138.787H95.3335ZM112.679 128.322H119.358V131.476H111.216V128.322H107.183V138.787H120.76V135.533H111.216V128.322H112.679ZM108.646 124.516V121.261H121.897V124.516H114.141H112.679H108.646ZM133.847 139.088C132.494 139.088 131.237 138.867 130.076 138.424C128.916 137.982 127.909 137.352 127.058 136.534C126.206 135.716 125.542 134.756 125.066 133.655C124.59 132.553 124.352 131.343 124.352 130.024C124.352 128.706 124.59 127.496 125.066 126.394C125.542 125.292 126.21 124.333 127.07 123.515C127.93 122.696 128.936 122.067 130.089 121.624C131.241 121.182 132.502 120.961 133.871 120.961C135.391 120.961 136.765 121.223 137.992 121.749C139.219 122.275 140.251 123.047 141.086 124.066L138.481 126.469C137.879 125.785 137.211 125.272 136.477 124.929C135.742 124.587 134.941 124.416 134.072 124.416C133.254 124.416 132.502 124.55 131.817 124.817C131.132 125.084 130.54 125.467 130.038 125.968C129.538 126.469 129.149 127.062 128.874 127.746C128.598 128.43 128.461 129.19 128.461 130.024C128.461 130.859 128.598 131.619 128.874 132.303C129.149 132.987 129.538 133.58 130.038 134.08C130.54 134.581 131.132 134.965 131.817 135.232C132.502 135.499 133.254 135.633 134.072 135.633C134.941 135.633 135.742 135.461 136.477 135.12C137.211 134.778 137.88 134.256 138.481 133.555L141.086 135.958C140.251 136.977 139.219 137.753 137.992 138.287C136.765 138.821 135.383 139.088 133.846 139.088L133.847 139.088ZM155.841 121.261H159.899V138.788H155.841V121.261ZM147.875 138.788H143.817V121.261H147.875V138.788ZM156.142 131.602H147.575V128.172H156.142V131.602Z" fill="#828487"/>
<path d="M90.8373 24.0823C103.327 24.0823 114.635 29.1423 122.82 37.3234C131.006 45.5043 136.069 56.8064 136.069 69.2895C136.069 81.7728 131.006 93.0745 122.82 101.255C114.635 109.437 103.327 114.497 90.8373 114.497C89.7079 114.497 88.5881 114.455 87.4802 114.373V111.98V109.829V109.562V107.588V90.9548H94.1945V107.588C113.866 105.888 129.303 89.3913 129.303 69.2897C129.303 48.0569 112.081 30.8442 90.8366 30.8442C69.5926 30.8442 52.3707 48.0567 52.3707 69.2897C52.3707 88.6385 66.6726 104.646 85.2866 107.335V109.322V109.589V114.159C75.0153 112.902 65.8076 108.205 58.8536 101.255C50.6683 93.0745 45.6055 81.7728 45.6055 69.2893C45.6055 56.8062 50.6683 45.504 58.8536 37.3232C67.0389 29.1423 78.3472 24.082 90.8373 24.082V24.0823ZM87.4802 82.2935V76.9062L90.755 69.2565L94.1945 77.261V82.2935H87.4802ZM87.4802 56.893V51.3237H72.0959V44.6331H109.579V51.3237H94.1945V56.893H87.4794H87.4802Z" fill="#828487"/>
<path d="M68.7163 99.0296L87.0769 58.25H94.5378L112.957 99.0296H105.03L89.2334 62.2698H92.2648L76.5271 99.0296H68.7163ZM77.1681 89.5925L79.208 83.6502H101.241L103.281 89.5925H77.1681Z" fill="#2567B1"/>
<path d="M26.6692 153.555V143.343H22.7178V142.315H31.8098V143.343H27.8579V153.555H26.6692ZM35.2517 147.341H41.1955V148.352H35.2517V147.341ZM35.3803 152.527H42.1432V153.555H34.1914V142.315H41.9026V143.343H35.3803V152.527ZM50.2756 153.65C49.4297 153.65 48.6478 153.509 47.9304 153.225C47.2129 152.941 46.5917 152.543 46.0668 152.029C45.542 151.515 45.1322 150.91 44.838 150.215C44.5434 149.519 44.3961 148.759 44.3961 147.935C44.3961 147.111 44.5431 146.351 44.838 145.655C45.1322 144.959 45.5445 144.354 46.0748 143.841C46.6047 143.327 47.2287 142.929 47.9462 142.644C48.6636 142.361 49.4454 142.219 50.2914 142.219C51.1057 142.219 51.8711 142.355 52.5886 142.628C53.3064 142.902 53.9112 143.31 54.4039 143.857L53.6488 144.611C53.1883 144.14 52.6798 143.801 52.1226 143.592C51.566 143.383 50.9659 143.279 50.3237 143.279C49.649 143.279 49.0229 143.394 48.4443 143.624C47.8657 143.854 47.3626 144.18 46.9341 144.603C46.5058 145.026 46.1712 145.518 45.9302 146.081C45.6895 146.642 45.5689 147.261 45.5689 147.935C45.5689 148.609 45.6897 149.228 45.9302 149.789C46.1714 150.351 46.506 150.844 46.9341 151.266C47.3628 151.689 47.8659 152.016 48.4443 152.245C49.0229 152.476 49.649 152.59 50.3237 152.59C50.9661 152.59 51.566 152.484 52.1226 152.27C52.6797 152.056 53.1883 151.713 53.6488 151.242L54.4039 151.996C53.9112 152.543 53.3064 152.955 52.5886 153.233C51.8711 153.512 51.1 153.65 50.2754 153.65H50.2756ZM65.6534 142.315H66.8258V153.554H65.6534V142.315ZM58.6172 153.554H57.4283V142.315H58.6172V153.554ZM65.7655 148.368H58.4885V147.324H65.7655V148.368ZM70.9743 153.554V142.315H71.9541L79.7133 152.077H79.1994V142.315H80.3718V153.554H79.3919L71.649 143.793H72.1631V153.554H70.9744H70.9743ZM89.4362 153.65C88.5902 153.65 87.8051 153.509 87.0823 153.225C86.3595 152.941 85.7332 152.54 85.2033 152.021C84.6727 151.502 84.2602 150.897 83.9661 150.207C83.6715 149.516 83.5244 148.759 83.5244 147.935C83.5244 147.11 83.6715 146.353 83.9661 145.663C84.2602 144.972 84.6727 144.367 85.2033 143.848C85.7332 143.329 86.3565 142.928 87.0741 142.644C87.7917 142.361 88.5791 142.219 89.4362 142.219C90.2821 142.219 91.0636 142.36 91.7811 142.644C92.4987 142.929 93.1228 143.327 93.6527 143.84C94.1833 144.354 94.5951 144.959 94.8897 145.655C95.1843 146.35 95.3313 147.11 95.3313 147.935C95.3313 148.759 95.1843 149.518 94.8897 150.214C94.5951 150.91 94.1833 151.515 93.6527 152.029C93.1228 152.542 92.4987 152.941 91.7811 153.225C91.0636 153.509 90.2821 153.65 89.4362 153.65ZM89.4362 152.59C90.1107 152.59 90.7341 152.475 91.307 152.245C91.8806 152.016 92.3785 151.688 92.8008 151.266C93.2245 150.843 93.5532 150.35 93.7892 149.789C94.0252 149.227 94.1432 148.609 94.1432 147.935C94.1432 147.261 94.0252 146.642 93.7892 146.081C93.5532 145.518 93.2245 145.026 92.8008 144.603C92.3785 144.18 91.8798 143.854 91.307 143.623C90.7341 143.394 90.1107 143.279 89.4362 143.279C88.7616 143.279 88.1346 143.394 87.5565 143.623C86.9784 143.854 86.4775 144.18 86.0545 144.603C85.6315 145.026 85.2998 145.518 85.0586 146.081C84.8175 146.642 84.6972 147.261 84.6972 147.935C84.6972 148.598 84.8175 149.214 85.0586 149.781C85.2998 150.348 85.6315 150.843 86.0545 151.266C86.4775 151.688 86.9784 152.016 87.5565 152.245C88.1346 152.475 88.7616 152.59 89.4362 152.59ZM98.4836 153.554V142.315H99.6724V152.527H105.97V153.554H98.4836ZM113.123 153.65C112.277 153.65 111.492 153.509 110.769 153.225C110.046 152.941 109.42 152.539 108.89 152.02C108.359 151.502 107.947 150.896 107.653 150.207C107.358 149.515 107.21 148.759 107.21 147.934C107.21 147.11 107.358 146.353 107.653 145.662C107.947 144.972 108.359 144.367 108.89 143.848C109.42 143.329 110.044 142.928 110.761 142.644C111.478 142.36 112.266 142.219 113.123 142.219C113.969 142.219 114.751 142.36 115.468 142.644C116.185 142.928 116.809 143.326 117.339 143.84C117.869 144.354 118.282 144.959 118.576 145.654C118.871 146.35 119.018 147.11 119.018 147.934C119.018 148.759 118.871 149.518 118.576 150.214C118.282 150.91 117.87 151.515 117.339 152.028C116.809 152.542 116.185 152.941 115.468 153.225C114.751 153.509 113.969 153.65 113.123 153.65ZM113.123 152.59C113.797 152.59 114.421 152.475 114.993 152.245C115.566 152.016 116.065 151.688 116.487 151.266C116.911 150.843 117.24 150.35 117.476 149.789C117.711 149.227 117.83 148.609 117.83 147.934C117.83 147.26 117.711 146.642 117.476 146.08C117.24 145.518 116.911 145.025 116.487 144.603C116.065 144.18 115.566 143.853 114.993 143.623C114.421 143.394 113.797 143.278 113.123 143.278C112.447 143.278 111.821 143.394 111.243 143.623C110.665 143.853 110.164 144.18 109.741 144.603C109.318 145.025 108.986 145.518 108.745 146.08C108.504 146.642 108.384 147.26 108.384 147.934C108.384 148.598 108.504 149.214 108.745 149.781C108.986 150.348 109.318 150.843 109.741 151.266C110.164 151.688 110.665 152.016 111.243 152.245C111.821 152.475 112.447 152.59 113.123 152.59ZM127.102 153.65C126.245 153.65 125.455 153.509 124.733 153.225C124.01 152.941 123.383 152.542 122.854 152.028C122.323 151.515 121.91 150.91 121.617 150.214C121.322 149.518 121.174 148.759 121.174 147.934C121.174 147.11 121.322 146.35 121.617 145.654C121.91 144.959 122.325 144.353 122.861 143.84C123.397 143.326 124.025 142.928 124.748 142.644C125.472 142.36 126.261 142.219 127.118 142.219C127.975 142.219 128.759 142.352 129.471 142.62C130.184 142.888 130.791 143.294 131.295 143.84L130.556 144.595C130.084 144.123 129.565 143.787 128.997 143.583C128.43 143.379 127.819 143.278 127.166 143.278C126.47 143.278 125.83 143.394 125.246 143.623C124.663 143.853 124.154 144.18 123.72 144.603C123.286 145.025 122.949 145.518 122.708 146.08C122.468 146.642 122.347 147.26 122.347 147.934C122.347 148.598 122.468 149.214 122.708 149.781C122.949 150.348 123.287 150.843 123.72 151.266C124.154 151.688 124.663 152.016 125.246 152.245C125.83 152.475 126.465 152.59 127.15 152.59C127.792 152.59 128.401 152.494 128.974 152.302C129.546 152.109 130.074 151.783 130.556 151.322L131.23 152.221C130.694 152.692 130.068 153.048 129.35 153.289C128.634 153.53 127.883 153.65 127.102 153.65ZM130.09 152.076V147.934H131.23V152.221L130.09 152.076ZM135.073 153.554V142.315H136.262V153.554H135.073ZM141.471 147.341H147.415V148.352H141.471V147.341ZM141.599 152.527H148.363V153.554H140.411V142.315H148.122V143.343H141.6V152.527H141.599ZM154.745 153.65C153.909 153.65 153.108 153.514 152.342 153.241C151.577 152.968 150.985 152.617 150.568 152.189L151.033 151.274C151.43 151.659 151.963 151.983 152.632 152.245C153.301 152.508 154.005 152.639 154.745 152.639C155.451 152.639 156.027 152.55 156.471 152.374C156.916 152.197 157.242 151.959 157.451 151.659C157.66 151.36 157.765 151.028 157.765 150.664C157.765 150.225 157.639 149.872 157.387 149.604C157.135 149.337 156.806 149.125 156.399 148.97C155.993 148.815 155.542 148.679 155.05 148.561C154.557 148.443 154.064 148.318 153.571 148.183C153.079 148.05 152.627 147.87 152.214 147.646C151.802 147.421 151.47 147.123 151.219 146.754C150.967 146.385 150.841 145.9 150.841 145.302C150.841 144.745 150.988 144.234 151.283 143.768C151.577 143.302 152.029 142.928 152.64 142.644C153.251 142.36 154.032 142.219 154.986 142.219C155.617 142.219 156.244 142.307 156.865 142.484C157.487 142.66 158.022 142.904 158.471 143.214L158.07 144.161C157.588 143.84 157.077 143.605 156.536 143.455C155.995 143.305 155.473 143.23 154.969 143.23C154.294 143.23 153.738 143.321 153.298 143.503C152.86 143.685 152.535 143.928 152.327 144.234C152.118 144.539 152.014 144.884 152.014 145.269C152.014 145.708 152.139 146.061 152.391 146.329C152.642 146.597 152.975 146.805 153.387 146.955C153.799 147.105 154.252 147.239 154.745 147.356C155.237 147.474 155.727 147.603 156.214 147.742C156.701 147.881 157.152 148.06 157.564 148.28C157.976 148.499 158.308 148.791 158.56 149.155C158.812 149.518 158.937 149.995 158.937 150.583C158.937 151.129 158.787 151.635 158.488 152.101C158.188 152.567 157.729 152.941 157.114 153.225C156.498 153.509 155.708 153.65 154.745 153.65Z" fill="#828487"/>
<path d="M23.2368 138.787L31.0526 121.261H35.0608L42.9017 138.787H38.6429L32.2301 123.314H33.8333L27.3954 138.787H23.237H23.2368ZM27.1447 135.031L28.222 131.952H37.2403L38.3426 135.031H27.1447ZM44.7305 138.787V121.261H48.7889V138.787H44.7305ZM61.4143 139.088C60.0283 139.088 58.7548 138.867 57.5942 138.424C56.4335 137.982 55.4232 137.351 54.563 136.534C53.703 135.716 53.035 134.756 52.5589 133.655C52.0829 132.553 51.8451 131.343 51.8451 130.024C51.8451 128.706 52.0829 127.495 52.5589 126.394C53.035 125.292 53.7071 124.332 54.5755 123.515C55.4438 122.696 56.4626 122.066 57.6317 121.624C58.8009 121.182 60.0868 120.961 61.4895 120.961C63.0426 120.961 64.4413 121.219 65.6854 121.737C66.9297 122.254 67.9777 123.005 68.8294 123.99L66.224 126.394C65.5893 125.726 64.8965 125.229 64.1447 124.904C63.3932 124.578 62.575 124.416 61.6898 124.416C60.8381 124.416 60.0616 124.549 59.3601 124.816C58.6587 125.083 58.0534 125.467 57.5439 125.968C57.0346 126.469 56.6421 127.061 56.3664 127.746C56.0909 128.43 55.9531 129.189 55.9531 130.024C55.9531 130.842 56.0908 131.593 56.3664 132.277C56.6421 132.962 57.0346 133.558 57.5439 134.068C58.0532 134.577 58.6544 134.965 59.3475 135.232C60.0405 135.499 60.8046 135.633 61.6398 135.633C62.4414 135.633 63.2221 135.503 63.9818 135.244C64.7418 134.986 65.4809 134.548 66.199 133.93L68.5036 136.86C67.5515 137.577 66.4452 138.128 65.1844 138.512C63.9236 138.895 62.6669 139.088 61.4141 139.088H61.4143ZM64.7963 136.334V129.749H68.5039V136.86L64.7963 136.334ZM80.0524 139.088C77.564 139.088 75.6184 138.395 74.2155 137.009C72.8126 135.624 72.1112 133.647 72.1112 131.076V121.261H76.1696V130.925C76.1696 132.595 76.512 133.796 77.1966 134.531C77.8812 135.266 78.8415 135.633 80.0774 135.633C81.3132 135.633 82.2736 135.266 82.9581 134.531C83.6429 133.796 83.9853 132.595 83.9853 130.925V121.261H87.9933V131.076C87.9933 133.647 87.292 135.624 85.8895 137.009C84.4862 138.395 82.5408 139.088 80.0524 139.088Z" fill="#2567B1"/>
<path fill-rule="evenodd" clip-rule="evenodd" d="M126.613 27.668C129.645 27.668 132.104 30.1253 132.104 33.1563C132.104 36.187 129.646 38.6442 126.613 38.6442C123.581 38.6442 121.122 36.1869 121.122 33.1563C121.122 30.1253 123.581 27.668 126.613 27.668Z" stroke="#828487" stroke-width="0.53376" stroke-miterlimit="22.9256"/>
<path d="M123.921 35.1058V31.8167H122.678V31.2031H125.861V31.8167H124.618V35.1058H123.921ZM126.386 35.1058V31.2033H126.96L128.599 34.0522H128.299L129.912 31.2033H130.485L130.49 35.1058H129.831L129.826 32.2794H129.965L128.594 34.6599H128.283L126.889 32.2794H127.05V35.1058H126.385H126.386Z" fill="#828487"/>
<path d="M15.8802 166.762C15.7853 167.563 15.7378 168.18 15.7378 168.613C15.7378 169.046 15.7793 169.361 15.8624 169.556C15.3578 169.426 15.0135 169.254 14.8295 169.04C14.6454 168.821 14.5534 168.548 14.5534 168.221C14.5534 167.889 14.5979 167.417 14.687 166.806C14.0517 164.54 13.5026 163.059 13.0396 162.365C13.283 162.211 13.5382 162.134 13.8054 162.134C13.9479 162.134 14.0666 162.149 14.1616 162.178C14.2625 162.202 14.3605 162.261 14.4554 162.356C14.5504 162.451 14.6306 162.573 14.6959 162.721C14.7671 162.87 14.8443 163.086 14.9274 163.371C15.0699 163.822 15.251 164.593 15.4706 165.685L15.5329 166.032C16.0791 165.184 16.5214 164.383 16.8598 163.629C17.2041 162.875 17.406 162.288 17.4653 161.867C17.9106 162.116 18.1332 162.454 18.1332 162.881C18.1332 163.303 17.3822 164.596 15.8802 166.762ZM21.2182 164.822C20.8323 164.822 20.488 165.083 20.1852 165.605C19.8824 166.121 19.731 166.637 19.731 167.153C19.731 168.233 20.0101 168.773 20.5681 168.773C20.9659 168.773 21.2894 168.515 21.5388 167.999C21.7881 167.477 21.9128 166.892 21.9128 166.246C21.9128 165.296 21.6812 164.822 21.2182 164.822ZM21.7703 164.172C22.1265 164.172 22.4293 164.347 22.6786 164.697C22.9279 165.047 23.0526 165.516 23.0526 166.103C23.0526 166.762 22.919 167.367 22.6519 167.919C22.355 168.542 21.9335 168.972 21.3874 169.209C21.0787 169.346 20.7403 169.414 20.3722 169.414C19.8557 169.414 19.4045 169.215 19.0186 168.818C18.6387 168.414 18.4487 167.839 18.4487 167.091C18.4487 166.338 18.6328 165.676 19.0008 165.106C19.3689 164.531 19.8557 164.169 20.4613 164.021C20.5266 164.021 20.5859 164.041 20.6394 164.083C20.6987 164.119 20.7284 164.157 20.7284 164.199C20.1288 164.614 19.7696 165.192 19.6509 165.934C19.7756 165.602 19.927 165.314 20.1051 165.071C20.2891 164.828 20.4791 164.644 20.675 164.519C21.049 164.288 21.4141 164.172 21.7703 164.172ZM27.3731 164.127C27.6819 164.127 27.9164 164.184 28.0766 164.297C28.2369 164.409 28.3171 164.617 28.3171 164.92C28.3171 165.014 28.2607 165.433 28.1479 166.174C28.0351 166.91 27.9787 167.542 27.9787 168.07C27.9787 168.598 28.0351 169.064 28.1479 169.467C27.7026 169.325 27.3939 169.123 27.2218 168.862C27.0496 168.601 26.9635 168.278 26.9635 167.892C26.9635 167.744 26.9962 167.409 27.0615 166.886C26.8774 167.563 26.5954 168.132 26.2155 168.595C25.8415 169.052 25.4883 169.281 25.1558 169.281C24.4731 169.281 24.1317 168.788 24.1317 167.803C24.1317 167.477 24.1792 167.023 24.2742 166.441C24.3751 165.854 24.4256 165.409 24.4256 165.106C24.4256 164.804 24.384 164.498 24.3009 164.19C24.7937 164.19 25.1499 164.255 25.3695 164.386C25.5951 164.51 25.7079 164.762 25.7079 165.142C25.7079 165.344 25.6456 165.744 25.5209 166.344C25.3962 166.943 25.3339 167.394 25.3339 167.696C25.3339 168.135 25.4526 168.355 25.6901 168.355C25.8088 168.355 25.9454 168.275 26.0997 168.115C26.2541 167.949 26.4025 167.732 26.545 167.465C26.6875 167.192 26.8062 166.854 26.9012 166.45C27.0021 166.041 27.0526 165.629 27.0526 165.213C27.0526 164.792 27.0348 164.436 26.9991 164.145C27.1772 164.133 27.3019 164.127 27.3731 164.127ZM34.7779 164.786C35.1578 164.501 35.5318 164.359 35.8999 164.359C36.268 164.359 36.5707 164.507 36.8082 164.804C37.0516 165.095 37.1733 165.519 37.1733 166.077C37.1733 166.967 36.9299 167.723 36.4431 168.346C35.9563 168.969 35.3715 169.281 34.6888 169.281C34.4454 169.281 34.199 169.233 33.9497 169.138C34.5315 169.002 34.9945 168.625 35.3389 168.008C35.6832 167.391 35.8554 166.777 35.8554 166.166C35.8554 165.881 35.8019 165.649 35.6951 165.471C35.5942 165.293 35.4487 165.204 35.2587 165.204C34.8966 165.204 34.576 165.424 34.297 165.863C34.018 166.302 33.8043 166.904 33.6558 167.67C33.5074 168.429 33.4332 169.221 33.4332 170.046C33.4332 170.877 33.4926 171.598 33.6113 172.209C33.1245 172.191 32.7624 172.111 32.5249 171.968C32.2934 171.832 32.1776 171.568 32.1776 171.176C32.1776 171.034 32.2667 170.283 32.4448 168.925C32.6288 167.56 32.7208 166.51 32.7208 165.774C32.7208 165.038 32.6763 164.418 32.5872 163.914C33.0622 164.032 33.3887 164.252 33.5668 164.572C33.7508 164.893 33.8428 165.362 33.8428 165.979C34.0922 165.468 34.4039 165.071 34.7779 164.786ZM41.4959 164.127C41.8046 164.127 42.0391 164.184 42.1994 164.297C42.3597 164.409 42.4399 164.617 42.4399 164.92C42.4399 165.014 42.3835 165.433 42.2707 166.174C42.1579 166.91 42.1015 167.542 42.1015 168.07C42.1015 168.598 42.1579 169.064 42.2707 169.467C41.8254 169.325 41.5167 169.123 41.3445 168.862C41.1724 168.601 41.0863 168.278 41.0863 167.892C41.0863 167.744 41.1189 167.409 41.1842 166.886C41.0002 167.563 40.7182 168.132 40.3383 168.595C39.9643 169.052 39.611 169.281 39.2786 169.281C38.5959 169.281 38.2545 168.788 38.2545 167.803C38.2545 167.477 38.302 167.023 38.397 166.441C38.4979 165.854 38.5484 165.409 38.5484 165.106C38.5484 164.804 38.5068 164.498 38.4237 164.19C38.9165 164.19 39.2726 164.255 39.4923 164.386C39.7179 164.51 39.8307 164.762 39.8307 165.142C39.8307 165.344 39.7684 165.744 39.6437 166.344C39.519 166.943 39.4567 167.394 39.4567 167.696C39.4567 168.135 39.5754 168.355 39.8129 168.355C39.9316 168.355 40.0682 168.275 40.2225 168.115C40.3769 167.949 40.5253 167.732 40.6678 167.465C40.8102 167.192 40.929 166.854 41.024 166.45C41.1249 166.041 41.1753 165.629 41.1753 165.213C41.1753 164.792 41.1575 164.436 41.1219 164.145C41.3 164.133 41.4247 164.127 41.4959 164.127ZM45.5516 164.67C45.3854 164.67 45.237 164.727 45.1064 164.839C44.9758 164.946 44.9105 165.101 44.9105 165.302C44.9105 165.504 44.9787 165.694 45.1153 165.872C45.2578 166.05 45.4299 166.207 45.6318 166.344C45.8336 166.474 46.0355 166.611 46.2373 166.753C46.4451 166.889 46.6262 167.061 46.7805 167.269C46.9349 167.471 47.0209 167.696 47.0388 167.946C47.0388 168.373 46.8547 168.732 46.4866 169.022C46.1186 169.313 45.6614 169.459 45.1153 169.459C44.5691 169.459 44.1387 169.349 43.8241 169.129C43.5154 168.91 43.361 168.658 43.361 168.373C43.361 168.088 43.4471 167.86 43.6192 167.687C43.7973 167.509 44.017 167.42 44.2782 167.42C44.4148 167.42 44.5424 167.444 44.6611 167.492C44.4711 167.693 44.3762 167.907 44.3762 168.132C44.3762 168.358 44.4385 168.539 44.5632 168.675C44.6878 168.812 44.857 168.88 45.0708 168.88C45.2845 168.88 45.4626 168.827 45.605 168.72C45.7535 168.607 45.8277 168.465 45.8277 168.293C45.8277 168.115 45.7772 167.957 45.6763 167.821C45.5754 167.685 45.4477 167.566 45.2934 167.465C45.145 167.358 44.9817 167.239 44.8036 167.109C44.6255 166.978 44.4593 166.848 44.3049 166.717C44.1565 166.581 44.0318 166.412 43.9309 166.21C43.83 166.002 43.7795 165.777 43.7795 165.534C43.7795 165.112 43.9517 164.768 44.296 164.501C44.6463 164.228 45.0797 164.092 45.5961 164.092C46.1186 164.092 46.4985 164.193 46.736 164.394C46.9794 164.596 47.1011 164.833 47.1011 165.106C47.1011 165.373 47.015 165.602 46.8428 165.792C46.6766 165.982 46.4599 166.077 46.1928 166.077C46.0622 166.077 45.9138 166.05 45.7475 165.996C45.8781 165.884 45.9791 165.756 46.0503 165.614C46.1215 165.465 46.1572 165.32 46.1572 165.178C46.1572 165.035 46.0978 164.917 45.9791 164.822C45.8603 164.721 45.7178 164.67 45.5516 164.67ZM49.3447 166.53C49.5406 165.86 49.8463 165.296 50.2619 164.839C50.6775 164.377 51.0634 164.145 51.4196 164.145C51.7817 164.145 52.037 164.255 52.1854 164.475C52.3397 164.688 52.4169 164.982 52.4169 165.356C52.4169 165.724 52.3575 166.243 52.2388 166.913C52.126 167.584 52.0696 168.073 52.0696 168.382C52.0696 168.684 52.1082 168.907 52.1854 169.049C52.2626 169.186 52.3932 169.304 52.5772 169.405C52.5 169.411 52.3902 169.414 52.2477 169.414C51.749 169.414 51.3928 169.337 51.1791 169.183C50.9713 169.028 50.8674 168.758 50.8674 168.373C50.8674 168.153 50.9268 167.726 51.0455 167.091C51.1643 166.45 51.2236 165.973 51.2236 165.658C51.2236 165.267 51.1049 165.071 50.8674 165.071C50.725 165.071 50.5676 165.151 50.3955 165.311C50.2233 165.471 50.0571 165.691 49.8968 165.97C49.7425 166.243 49.6118 166.596 49.505 167.029C49.3981 167.462 49.3447 167.895 49.3447 168.328C49.3447 168.755 49.3625 169.073 49.3981 169.281C49.2082 169.292 49.0835 169.298 49.0241 169.298C48.6857 169.298 48.4423 169.242 48.2939 169.129C48.1455 169.011 48.0713 168.824 48.0713 168.569C48.0713 168.313 48.1217 167.827 48.2227 167.109C48.5432 164.902 48.7035 163.226 48.7035 162.08C48.7035 161.564 48.6679 161.217 48.5967 161.039C49.0419 161.158 49.3447 161.339 49.505 161.582C49.6712 161.819 49.7543 162.158 49.7543 162.597C49.7543 162.893 49.695 163.516 49.5762 164.466C49.4634 165.415 49.3862 166.103 49.3447 166.53ZM58.2334 166.21C58.1384 166.738 58.0642 167.207 58.0108 167.616C57.9574 168.026 57.9307 168.444 57.9307 168.871C57.9307 169.298 57.9722 169.604 58.0553 169.788C57.5982 169.669 57.2836 169.488 57.1114 169.245C56.9392 168.996 56.8531 168.646 56.8531 168.195C56.8531 167.797 56.9155 167.254 57.0402 166.566C57.1648 165.872 57.245 165.403 57.2806 165.16C56.9719 165.213 56.6424 165.317 56.2921 165.471C56.2803 165.341 56.2743 165.243 56.2743 165.178C56.2743 164.863 56.3693 164.65 56.5593 164.537C56.7493 164.418 57.0223 164.356 57.3785 164.35C57.4201 163.905 57.4409 163.585 57.4409 163.389C57.4409 163.193 57.4379 163.03 57.432 162.899C57.432 162.769 57.432 162.671 57.432 162.605C57.8238 162.647 58.1087 162.766 58.2868 162.962C58.465 163.151 58.554 163.424 58.554 163.78C58.554 163.923 58.5392 164.121 58.5095 164.377C59.0082 164.365 59.3733 164.267 59.6048 164.083C59.6167 164.202 59.6226 164.291 59.6226 164.35C59.6226 164.635 59.5721 164.833 59.4712 164.946C59.3703 165.053 59.2011 165.106 58.9636 165.106C58.7262 165.106 58.5451 165.103 58.4204 165.098C58.3907 165.311 58.3284 165.682 58.2334 166.21ZM61.2499 166.53C61.4458 165.86 61.7516 165.296 62.1671 164.839C62.5827 164.377 62.9686 164.145 63.3248 164.145C63.6869 164.145 63.9422 164.255 64.0906 164.475C64.2449 164.688 64.3221 164.982 64.3221 165.356C64.3221 165.724 64.2628 166.243 64.144 166.913C64.0312 167.584 63.9748 168.073 63.9748 168.382C63.9748 168.684 64.0134 168.907 64.0906 169.049C64.1678 169.186 64.2984 169.304 64.4824 169.405C64.4052 169.411 64.2954 169.414 64.1529 169.414C63.6543 169.414 63.298 169.337 63.0843 169.183C62.8765 169.028 62.7727 168.758 62.7727 168.373C62.7727 168.153 62.832 167.726 62.9508 167.091C63.0695 166.45 63.1289 165.973 63.1289 165.658C63.1289 165.267 63.0101 165.071 62.7727 165.071C62.6302 165.071 62.4729 165.151 62.3007 165.311C62.1285 165.471 61.9623 165.691 61.802 165.97C61.6477 166.243 61.5171 166.596 61.4102 167.029C61.3033 167.462 61.2499 167.895 61.2499 168.328C61.2499 168.755 61.2677 169.073 61.3033 169.281C61.1134 169.292 60.9887 169.298 60.9293 169.298C60.5909 169.298 60.3475 169.242 60.1991 169.129C60.0507 169.011 59.9765 168.824 59.9765 168.569C59.9765 168.313 60.027 167.827 60.1279 167.109C60.4485 164.902 60.6087 163.226 60.6087 162.08C60.6087 161.564 60.5731 161.217 60.5019 161.039C60.9471 161.158 61.2499 161.339 61.4102 161.582C61.5764 161.819 61.6595 162.158 61.6595 162.597C61.6595 162.893 61.6002 163.516 61.4814 164.466C61.3686 165.415 61.2915 166.103 61.2499 166.53ZM67.5198 167.091C67.2349 167.091 66.9558 167.059 66.6828 166.993C66.6768 167.053 66.6739 167.145 66.6739 167.269C66.6739 167.762 66.7659 168.132 66.9499 168.382C67.1339 168.631 67.3536 168.755 67.6089 168.755C67.8642 168.755 68.1076 168.678 68.3391 168.524C68.5706 168.37 68.7725 168.156 68.9446 167.883C69.1583 167.931 69.2652 168.041 69.2652 168.213C68.7428 169.014 68.069 169.414 67.2438 169.414C66.7451 169.414 66.3088 169.224 65.9347 168.844C65.5607 168.459 65.3737 167.925 65.3737 167.242C65.3737 166.732 65.4717 166.249 65.6676 165.792C65.8635 165.329 66.1752 164.94 66.6026 164.626C67.0301 164.305 67.502 164.145 68.0185 164.145C68.5409 164.145 68.9238 164.264 69.1672 164.501C69.4106 164.739 69.5323 165.05 69.5323 165.436C69.5323 165.993 69.3364 166.409 68.9446 166.682C68.5587 166.955 68.0838 167.091 67.5198 167.091ZM67.8938 164.697C67.5911 164.697 67.3358 164.884 67.128 165.258C66.9202 165.632 66.7837 166.085 66.7184 166.619H66.852C67.3684 166.619 67.7484 166.486 67.9918 166.219C68.2411 165.952 68.3658 165.632 68.3658 165.258C68.3658 165.103 68.3242 164.973 68.2411 164.866C68.164 164.753 68.0482 164.697 67.8938 164.697ZM73.6077 169.058C73.5365 168.939 73.492 168.827 73.4741 168.72C73.4563 168.607 73.4474 168.435 73.4474 168.204C73.4474 167.972 73.5454 167.061 73.7413 165.471C73.9431 163.881 74.0441 162.789 74.0441 162.196C74.0441 161.603 74.0084 161.217 73.9372 161.039C74.3824 161.158 74.6852 161.339 74.8455 161.582C75.0117 161.819 75.0948 162.158 75.0948 162.597C75.0948 162.858 75.0088 163.706 74.8366 165.142C74.6644 166.578 74.5784 167.735 74.5784 168.613C74.5784 168.803 74.5902 169.07 74.614 169.414C74.0737 169.39 73.7383 169.272 73.6077 169.058ZM76.2866 167.821C76.2866 167.572 76.3341 167.121 76.4291 166.468C76.5241 165.815 76.5716 165.308 76.5716 164.946C76.5716 164.584 76.5538 164.305 76.5182 164.11C76.6488 164.098 76.7705 164.092 76.8833 164.092C77.2276 164.092 77.465 164.151 77.5957 164.27C77.7322 164.383 77.8004 164.578 77.8004 164.857C77.8004 164.946 77.7263 165.415 77.5779 166.263C77.4354 167.106 77.3612 167.803 77.3552 168.355C77.3552 168.901 77.3908 169.254 77.4621 169.414C76.999 169.295 76.6874 169.117 76.5271 168.88C76.3668 168.637 76.2866 168.284 76.2866 167.821ZM77.4977 163.344C76.8862 163.344 76.5805 163.131 76.5805 162.703C76.5805 162.549 76.625 162.338 76.7141 162.071C76.8803 162.048 77.0257 162.036 77.1504 162.036C77.7619 162.036 78.0676 162.249 78.0676 162.677C78.0676 162.831 78.0231 163.042 77.9341 163.309C77.7678 163.332 77.6224 163.344 77.4977 163.344ZM82.8432 168.337C82.8432 168.634 82.861 168.948 82.8966 169.281C82.7067 169.292 82.582 169.298 82.5226 169.298C82.1902 169.298 81.9497 169.242 81.8013 169.129C81.6529 169.011 81.5787 168.839 81.5787 168.613C81.5787 168.388 81.641 167.925 81.7657 167.225C81.8963 166.519 81.9616 165.985 81.9616 165.623C81.9616 165.255 81.8429 165.071 81.6054 165.071C81.4748 165.071 81.3323 165.151 81.178 165.311C81.0236 165.465 80.8782 165.679 80.7416 165.952C80.6051 166.219 80.4893 166.563 80.3943 166.984C80.3053 167.406 80.2608 167.812 80.2608 168.204C80.2608 168.589 80.2786 168.948 80.3142 169.281C80.1242 169.292 79.9996 169.298 79.9402 169.298C79.6077 169.298 79.3673 169.242 79.2189 169.129C79.0705 169.011 78.9963 168.815 78.9963 168.542C78.9963 168.477 79.0556 168.035 79.1744 167.216C79.299 166.397 79.3614 165.75 79.3614 165.276C79.3614 164.795 79.3109 164.356 79.21 163.958C79.6493 164.095 79.955 164.291 80.1272 164.546C80.2994 164.801 80.3854 165.115 80.3854 165.489C80.3854 165.679 80.3647 165.919 80.3231 166.21C80.5249 165.617 80.804 165.124 81.1602 164.733C81.5223 164.341 81.8696 164.145 82.2021 164.145C82.5404 164.145 82.7838 164.27 82.9323 164.519C83.0866 164.768 83.1638 165.127 83.1638 165.596C83.3894 165.163 83.6476 164.813 83.9385 164.546C84.2296 164.279 84.4968 164.145 84.7402 164.145C85.1023 164.145 85.3576 164.255 85.506 164.475C85.6604 164.688 85.7376 164.982 85.7376 165.356C85.7376 165.724 85.6782 166.243 85.5595 166.913C85.4467 167.584 85.3903 168.073 85.3903 168.382C85.3903 168.684 85.4288 168.907 85.506 169.049C85.5832 169.186 85.7138 169.304 85.8978 169.405C85.8207 169.411 85.7108 169.414 85.5684 169.414C85.0697 169.414 84.7135 169.337 84.4998 169.183C84.292 169.028 84.1879 168.758 84.1879 168.373C84.1879 168.153 84.2475 167.726 84.3662 167.091C84.4849 166.45 84.5443 165.973 84.5443 165.658C84.5443 165.267 84.4256 165.071 84.1879 165.071C84.0098 165.071 83.8168 165.201 83.609 165.462C83.4072 165.718 83.2291 166.106 83.0747 166.628C82.9204 167.145 82.8432 167.714 82.8432 168.337ZM87.1134 167.821C87.1134 167.572 87.1609 167.121 87.2559 166.468C87.3508 165.815 87.3983 165.308 87.3983 164.946C87.3983 164.584 87.3805 164.305 87.3449 164.11C87.4755 164.098 87.5972 164.092 87.71 164.092C88.0543 164.092 88.2918 164.151 88.4224 164.27C88.559 164.383 88.6272 164.578 88.6272 164.857C88.6272 164.946 88.553 165.415 88.4046 166.263C88.2621 167.106 88.1879 167.803 88.182 168.355C88.182 168.901 88.2176 169.254 88.2888 169.414C87.8258 169.295 87.5141 169.117 87.3538 168.88C87.1935 168.637 87.1134 168.284 87.1134 167.821ZM88.3244 163.344C87.713 163.344 87.4072 163.131 87.4072 162.703C87.4072 162.549 87.4518 162.338 87.5408 162.071C87.707 162.048 87.8525 162.036 87.9772 162.036C88.5886 162.036 88.8944 162.249 88.8944 162.677C88.8944 162.831 88.8498 163.042 88.7608 163.309C88.5946 163.332 88.4491 163.344 88.3244 163.344ZM91.4709 166.21C91.3759 166.738 91.3017 167.207 91.2483 167.616C91.1948 168.026 91.1681 168.444 91.1681 168.871C91.1681 169.298 91.2097 169.604 91.2928 169.788C90.8357 169.669 90.521 169.488 90.3489 169.245C90.1767 168.996 90.0906 168.646 90.0906 168.195C90.0906 167.797 90.1529 167.254 90.2776 166.566C90.4023 165.872 90.4824 165.403 90.5181 165.16C90.2093 165.213 89.8799 165.317 89.5296 165.471C89.5177 165.341 89.5118 165.243 89.5118 165.178C89.5118 164.863 89.6068 164.65 89.7967 164.537C89.9867 164.418 90.2598 164.356 90.616 164.35C90.6576 163.905 90.6783 163.585 90.6783 163.389C90.6783 163.193 90.6754 163.03 90.6694 162.899C90.6694 162.769 90.6694 162.671 90.6694 162.605C91.0612 162.647 91.3462 162.766 91.5243 162.962C91.7024 163.151 91.7915 163.424 91.7915 163.78C91.7915 163.923 91.7766 164.121 91.7469 164.377C92.2456 164.365 92.6107 164.267 92.8422 164.083C92.8541 164.202 92.8601 164.291 92.8601 164.35C92.8601 164.635 92.8096 164.833 92.7087 164.946C92.6077 165.053 92.4386 165.106 92.2011 165.106C91.9636 165.106 91.7826 165.103 91.6579 165.098C91.6282 165.311 91.5659 165.682 91.4709 166.21ZM95.1635 164.67C94.9973 164.67 94.8488 164.727 94.7182 164.839C94.5876 164.946 94.5223 165.101 94.5223 165.302C94.5223 165.504 94.5906 165.694 94.7271 165.872C94.8696 166.05 95.0418 166.207 95.2436 166.344C95.4455 166.474 95.6473 166.611 95.8492 166.753C96.0569 166.889 96.238 167.061 96.3924 167.269C96.5467 167.471 96.6328 167.696 96.6506 167.946C96.6506 168.373 96.4666 168.732 96.0985 169.022C95.7304 169.313 95.2733 169.459 94.7271 169.459C94.181 169.459 93.7505 169.349 93.4359 169.129C93.1272 168.91 92.9729 168.658 92.9729 168.373C92.9729 168.088 93.0589 167.86 93.2311 167.687C93.4092 167.509 93.6289 167.42 93.8901 167.42C94.0266 167.42 94.1542 167.444 94.273 167.492C94.083 167.693 93.988 167.907 93.988 168.132C93.988 168.358 94.0504 168.539 94.175 168.675C94.2997 168.812 94.4689 168.88 94.6826 168.88C94.8963 168.88 95.0744 168.827 95.2169 168.72C95.3653 168.607 95.4395 168.465 95.4395 168.293C95.4395 168.115 95.3891 167.957 95.2881 167.821C95.1872 167.685 95.0596 167.566 94.9052 167.465C94.7568 167.358 94.5936 167.239 94.4155 167.109C94.2374 166.978 94.0711 166.848 93.9168 166.717C93.7684 166.581 93.6437 166.412 93.5428 166.21C93.4418 166.002 93.3914 165.777 93.3914 165.534C93.3914 165.112 93.5635 164.768 93.9079 164.501C94.2581 164.228 94.6915 164.092 95.208 164.092C95.7304 164.092 96.1104 164.193 96.3478 164.394C96.5912 164.596 96.7129 164.833 96.7129 165.106C96.7129 165.373 96.6269 165.602 96.4547 165.792C96.2885 165.982 96.0718 166.077 95.8046 166.077C95.674 166.077 95.5256 166.05 95.3594 165.996C95.49 165.884 95.5909 165.756 95.6622 165.614C95.7334 165.465 95.769 165.32 95.769 165.178C95.769 165.035 95.7096 164.917 95.5909 164.822C95.4722 164.721 95.3297 164.67 95.1635 164.67ZM98.1734 167.981C98.6127 167.981 98.8323 168.165 98.8323 168.533C98.8323 168.919 98.6928 169.287 98.4138 169.637C98.1348 169.993 97.7281 170.31 97.1938 170.589L96.9356 170.188C97.4046 169.773 97.6391 169.292 97.6391 168.747C97.6391 168.551 97.5945 168.328 97.5055 168.079C97.737 168.014 97.9596 167.981 98.1734 167.981ZM107.872 169.281C107.83 169.298 107.714 169.322 107.524 169.352C107.34 169.387 107.165 169.405 106.999 169.405C106.839 169.405 106.758 169.361 106.758 169.272C106.681 168.957 106.491 167.833 106.189 165.899C105.369 167.72 104.883 168.847 104.728 169.281C104.687 169.298 104.571 169.322 104.381 169.352C104.191 169.387 104.016 169.405 103.855 169.405C103.695 169.405 103.615 169.361 103.615 169.272C103.526 168.898 103.401 168.177 103.241 167.109C103.081 166.041 102.915 165.071 102.742 164.199C102.57 163.326 102.392 162.748 102.208 162.463C102.535 162.309 102.802 162.232 103.009 162.232C103.223 162.232 103.378 162.27 103.473 162.347C103.568 162.425 103.654 162.594 103.731 162.855C103.814 163.11 103.888 163.469 103.953 163.932C104.019 164.388 104.075 164.822 104.123 165.231C104.176 165.634 104.203 165.839 104.203 165.845C104.203 165.851 104.206 165.881 104.212 165.934C104.218 165.982 104.262 166.305 104.345 166.904C104.434 167.498 104.491 167.88 104.514 168.052C104.972 167.073 105.444 165.863 105.93 164.421C105.74 163.436 105.547 162.784 105.352 162.463C105.678 162.309 105.945 162.232 106.153 162.232C106.367 162.232 106.521 162.27 106.616 162.347C106.711 162.425 106.797 162.594 106.874 162.855C106.957 163.11 107.032 163.469 107.097 163.932C107.162 164.388 107.219 164.822 107.266 165.231C107.32 165.634 107.346 165.839 107.346 165.845C107.346 165.851 107.349 165.881 107.355 165.934C107.361 165.982 107.406 166.305 107.489 166.904C107.578 167.498 107.634 167.88 107.658 168.052C108.073 166.972 108.495 165.807 108.922 164.555C109.35 163.303 109.575 162.484 109.599 162.098C110.24 162.229 110.561 162.436 110.561 162.721C110.561 163.107 109.949 164.641 108.727 167.323C108.252 168.373 107.967 169.025 107.872 169.281ZM113.253 167.091C112.968 167.091 112.689 167.059 112.416 166.993C112.41 167.053 112.407 167.145 112.407 167.269C112.407 167.762 112.499 168.132 112.683 168.382C112.867 168.631 113.087 168.755 113.342 168.755C113.598 168.755 113.841 168.678 114.072 168.524C114.304 168.37 114.506 168.156 114.678 167.883C114.892 167.931 114.999 168.041 114.999 168.213C114.476 169.014 113.802 169.414 112.977 169.414C112.478 169.414 112.042 169.224 111.668 168.844C111.294 168.459 111.107 167.925 111.107 167.242C111.107 166.732 111.205 166.249 111.401 165.792C111.597 165.329 111.909 164.94 112.336 164.626C112.763 164.305 113.235 164.145 113.752 164.145C114.274 164.145 114.657 164.264 114.901 164.501C115.144 164.739 115.266 165.05 115.266 165.436C115.266 165.993 115.07 166.409 114.678 166.682C114.292 166.955 113.817 167.091 113.253 167.091ZM113.627 164.697C113.324 164.697 113.069 164.884 112.861 165.258C112.654 165.632 112.517 166.085 112.452 166.619H112.585C113.102 166.619 113.482 166.486 113.725 166.219C113.974 165.952 114.099 165.632 114.099 165.258C114.099 165.103 114.058 164.973 113.974 164.866C113.897 164.753 113.782 164.697 113.627 164.697ZM123.055 168.337C123.055 168.634 123.072 168.948 123.108 169.281C122.918 169.292 122.793 169.298 122.734 169.298C122.402 169.298 122.161 169.242 122.013 169.129C121.864 169.011 121.79 168.839 121.79 168.613C121.79 168.388 121.852 167.925 121.977 167.225C122.108 166.519 122.173 165.985 122.173 165.623C122.173 165.255 122.054 165.071 121.817 165.071C121.686 165.071 121.544 165.151 121.389 165.311C121.235 165.465 121.09 165.679 120.953 165.952C120.816 166.219 120.701 166.563 120.606 166.984C120.517 167.406 120.472 167.812 120.472 168.204C120.472 168.589 120.49 168.948 120.526 169.281C120.336 169.292 120.211 169.298 120.152 169.298C119.819 169.298 119.579 169.242 119.43 169.129C119.282 169.011 119.208 168.815 119.208 168.542C119.208 168.477 119.267 168.035 119.386 167.216C119.51 166.397 119.573 165.75 119.573 165.276C119.573 164.795 119.522 164.356 119.421 163.958C119.861 164.095 120.166 164.291 120.339 164.546C120.511 164.801 120.597 165.115 120.597 165.489C120.597 165.679 120.576 165.919 120.535 166.21C120.736 165.617 121.015 165.124 121.372 164.733C121.734 164.341 122.081 164.145 122.413 164.145C122.752 164.145 122.995 164.27 123.144 164.519C123.298 164.768 123.375 165.127 123.375 165.596C123.601 165.163 123.859 164.813 124.15 164.546C124.441 164.279 124.708 164.145 124.951 164.145C125.314 164.145 125.569 164.255 125.717 164.475C125.872 164.688 125.949 164.982 125.949 165.356C125.949 165.724 125.889 166.243 125.771 166.913C125.658 167.584 125.601 168.073 125.601 168.382C125.601 168.684 125.64 168.907 125.717 169.049C125.794 169.186 125.925 169.304 126.109 169.405C126.032 169.411 125.922 169.414 125.78 169.414C125.281 169.414 124.925 169.337 124.711 169.183C124.503 169.028 124.399 168.758 124.399 168.373C124.399 168.153 124.459 167.726 124.577 167.091C124.696 166.45 124.755 165.973 124.755 165.658C124.755 165.267 124.637 165.071 124.399 165.071C124.221 165.071 124.028 165.201 123.82 165.462C123.619 165.718 123.44 166.106 123.286 166.628C123.132 167.145 123.055 167.714 123.055 168.337ZM129.142 167.091C128.857 167.091 128.578 167.059 128.305 166.993C128.299 167.053 128.296 167.145 128.296 167.269C128.296 167.762 128.388 168.132 128.572 168.382C128.756 168.631 128.976 168.755 129.231 168.755C129.486 168.755 129.73 168.678 129.961 168.524C130.193 168.37 130.395 168.156 130.567 167.883C130.78 167.931 130.887 168.041 130.887 168.213C130.365 169.014 129.691 169.414 128.866 169.414C128.367 169.414 127.931 169.224 127.557 168.844C127.183 168.459 126.996 167.925 126.996 167.242C126.996 166.732 127.094 166.249 127.29 165.792C127.486 165.329 127.797 164.94 128.225 164.626C128.652 164.305 129.124 164.145 129.641 164.145C130.163 164.145 130.546 164.264 130.789 164.501C131.033 164.739 131.154 165.05 131.154 165.436C131.154 165.993 130.959 166.409 130.567 166.682C130.181 166.955 129.706 167.091 129.142 167.091ZM129.516 164.697C129.213 164.697 128.958 164.884 128.75 165.258C128.542 165.632 128.406 166.085 128.34 166.619H128.474C128.991 166.619 129.37 166.486 129.614 166.219C129.863 165.952 129.988 165.632 129.988 165.258C129.988 165.103 129.946 164.973 129.863 164.866C129.786 164.753 129.67 164.697 129.516 164.697ZM133.189 167.598C133.189 167.877 133.24 168.106 133.341 168.284C133.447 168.456 133.596 168.542 133.786 168.542C134.065 168.542 134.329 168.379 134.578 168.052C134.834 167.726 135.036 167.308 135.184 166.797C135.338 166.287 135.415 165.804 135.415 165.347C135.415 164.884 135.398 164.51 135.362 164.225C135.54 164.213 135.665 164.208 135.736 164.208C136.039 164.208 136.267 164.264 136.422 164.377C136.576 164.489 136.653 164.691 136.653 164.982C136.653 165.095 136.582 165.554 136.44 166.361C136.297 167.162 136.226 167.806 136.226 168.293C136.226 168.773 136.318 169.2 136.502 169.574C136.057 169.497 135.73 169.334 135.522 169.085C135.315 168.83 135.211 168.465 135.211 167.99C135.211 167.907 135.223 167.747 135.246 167.509C135.086 168.073 134.801 168.527 134.391 168.871C133.982 169.215 133.578 169.387 133.18 169.387C132.788 169.387 132.471 169.242 132.227 168.951C131.99 168.655 131.871 168.236 131.871 167.696C131.871 167.156 131.966 166.634 132.156 166.13C132.352 165.62 132.643 165.19 133.029 164.839C133.415 164.483 133.845 164.305 134.32 164.305C134.593 164.305 134.872 164.371 135.157 164.501C134.558 164.715 134.08 165.136 133.724 165.765C133.367 166.388 133.189 166.999 133.189 167.598ZM139.715 164.67C139.549 164.67 139.4 164.727 139.27 164.839C139.139 164.946 139.074 165.101 139.074 165.302C139.074 165.504 139.142 165.694 139.279 165.872C139.421 166.05 139.593 166.207 139.795 166.344C139.997 166.474 140.199 166.611 140.401 166.753C140.609 166.889 140.79 167.061 140.944 167.269C141.098 167.471 141.184 167.696 141.202 167.946C141.202 168.373 141.018 168.732 140.65 169.022C140.282 169.313 139.825 169.459 139.279 169.459C138.733 169.459 138.302 169.349 137.988 169.129C137.679 168.91 137.524 168.658 137.524 168.373C137.524 168.088 137.611 167.86 137.783 167.687C137.961 167.509 138.18 167.42 138.442 167.42C138.578 167.42 138.706 167.444 138.825 167.492C138.635 167.693 138.54 167.907 138.54 168.132C138.54 168.358 138.602 168.539 138.727 168.675C138.851 168.812 139.02 168.88 139.234 168.88C139.448 168.88 139.626 168.827 139.769 168.72C139.917 168.607 139.991 168.465 139.991 168.293C139.991 168.115 139.941 167.957 139.84 167.821C139.739 167.685 139.611 167.566 139.457 167.465C139.308 167.358 139.145 167.239 138.967 167.109C138.789 166.978 138.623 166.848 138.468 166.717C138.32 166.581 138.195 166.412 138.094 166.21C137.993 166.002 137.943 165.777 137.943 165.534C137.943 165.112 138.115 164.768 138.459 164.501C138.81 164.228 139.243 164.092 139.76 164.092C140.282 164.092 140.662 164.193 140.899 164.394C141.143 164.596 141.265 164.833 141.265 165.106C141.265 165.373 141.178 165.602 141.006 165.792C140.84 165.982 140.623 166.077 140.356 166.077C140.226 166.077 140.077 166.05 139.911 165.996C140.042 165.884 140.143 165.756 140.214 165.614C140.285 165.465 140.321 165.32 140.321 165.178C140.321 165.035 140.261 164.917 140.143 164.822C140.024 164.721 139.881 164.67 139.715 164.67ZM145.529 164.127C145.838 164.127 146.072 164.184 146.233 164.297C146.393 164.409 146.473 164.617 146.473 164.92C146.473 165.014 146.417 165.433 146.304 166.174C146.191 166.91 146.135 167.542 146.135 168.07C146.135 168.598 146.191 169.064 146.304 169.467C145.859 169.325 145.55 169.123 145.378 168.862C145.206 168.601 145.12 168.278 145.12 167.892C145.12 167.744 145.152 167.409 145.218 166.886C145.034 167.563 144.752 168.132 144.372 168.595C143.998 169.052 143.644 169.281 143.312 169.281C142.629 169.281 142.288 168.788 142.288 167.803C142.288 167.477 142.335 167.023 142.43 166.441C142.531 165.854 142.582 165.409 142.582 165.106C142.582 164.804 142.54 164.498 142.457 164.19C142.95 164.19 143.306 164.255 143.526 164.386C143.751 164.51 143.864 164.762 143.864 165.142C143.864 165.344 143.802 165.744 143.677 166.344C143.552 166.943 143.49 167.394 143.49 167.696C143.49 168.135 143.609 168.355 143.846 168.355C143.965 168.355 144.102 168.275 144.256 168.115C144.41 167.949 144.559 167.732 144.701 167.465C144.844 167.192 144.962 166.854 145.057 166.45C145.158 166.041 145.209 165.629 145.209 165.213C145.209 164.792 145.191 164.436 145.155 164.145C145.333 164.133 145.458 164.127 145.529 164.127ZM148.988 166.388C149.202 165.617 149.457 165.05 149.754 164.688C150.057 164.32 150.336 164.136 150.591 164.136C150.852 164.136 151.048 164.234 151.179 164.43C151.309 164.62 151.375 164.869 151.375 165.178C151.375 165.48 151.283 165.759 151.099 166.014C150.921 166.269 150.674 166.397 150.359 166.397C150.276 166.397 150.178 166.373 150.066 166.326C150.25 166.094 150.342 165.815 150.342 165.489C150.342 165.299 150.264 165.204 150.11 165.204C149.997 165.204 149.876 165.284 149.745 165.445C149.614 165.599 149.49 165.815 149.371 166.094C149.252 166.367 149.151 166.72 149.068 167.153C148.991 167.581 148.952 168.038 148.952 168.524C148.952 168.583 148.967 168.836 148.997 169.281C148.807 169.292 148.685 169.298 148.632 169.298C148.294 169.298 148.05 169.239 147.902 169.12C147.753 169.002 147.679 168.806 147.679 168.533C147.679 168.414 147.741 167.957 147.866 167.162C147.991 166.367 148.053 165.735 148.053 165.267C148.053 164.792 148.003 164.356 147.902 163.958C148.335 164.095 148.638 164.291 148.81 164.546C148.982 164.795 149.068 165.089 149.068 165.427C149.068 165.759 149.042 166.08 148.988 166.388ZM153.769 167.091C153.484 167.091 153.205 167.059 152.932 166.993C152.926 167.053 152.923 167.145 152.923 167.269C152.923 167.762 153.015 168.132 153.199 168.382C153.383 168.631 153.603 168.755 153.858 168.755C154.114 168.755 154.357 168.678 154.589 168.524C154.82 168.37 155.022 168.156 155.194 167.883C155.408 167.931 155.515 168.041 155.515 168.213C154.992 169.014 154.318 169.414 153.493 169.414C152.995 169.414 152.558 169.224 152.184 168.844C151.81 168.459 151.623 167.925 151.623 167.242C151.623 166.732 151.721 166.249 151.917 165.792C152.113 165.329 152.425 164.94 152.852 164.626C153.28 164.305 153.752 164.145 154.268 164.145C154.79 164.145 155.173 164.264 155.417 164.501C155.66 164.739 155.782 165.05 155.782 165.436C155.782 165.993 155.586 166.409 155.194 166.682C154.808 166.955 154.333 167.091 153.769 167.091ZM154.143 164.697C153.841 164.697 153.585 164.884 153.378 165.258C153.17 165.632 153.033 166.085 152.968 166.619H153.101C153.618 166.619 153.998 166.486 154.241 166.219C154.491 165.952 154.615 165.632 154.615 165.258C154.615 165.103 154.574 164.973 154.491 164.866C154.413 164.753 154.298 164.697 154.143 164.697ZM159.875 167.821C159.875 167.572 159.923 167.121 160.018 166.468C160.113 165.815 160.16 165.308 160.16 164.946C160.16 164.584 160.142 164.305 160.107 164.11C160.237 164.098 160.359 164.092 160.472 164.092C160.816 164.092 161.054 164.151 161.184 164.27C161.321 164.383 161.389 164.578 161.389 164.857C161.389 164.946 161.315 165.415 161.166 166.263C161.024 167.106 160.95 167.803 160.944 168.355C160.944 168.901 160.979 169.254 161.051 169.414C160.588 169.295 160.276 169.117 160.116 168.88C159.955 168.637 159.875 168.284 159.875 167.821ZM161.086 163.344C160.475 163.344 160.169 163.131 160.169 162.703C160.169 162.549 160.214 162.338 160.303 162.071C160.469 162.048 160.614 162.036 160.739 162.036C161.35 162.036 161.656 162.249 161.656 162.677C161.656 162.831 161.612 163.042 161.523 163.309C161.356 163.332 161.211 163.344 161.086 163.344ZM164.232 166.21C164.137 166.738 164.063 167.207 164.009 167.616C163.956 168.026 163.929 168.444 163.929 168.871C163.929 169.298 163.971 169.604 164.054 169.788C163.597 169.669 163.282 169.488 163.11 169.245C162.938 168.996 162.852 168.646 162.852 168.195C162.852 167.797 162.914 167.254 163.039 166.566C163.163 165.872 163.244 165.403 163.279 165.16C162.97 165.213 162.641 165.317 162.291 165.471C162.279 165.341 162.273 165.243 162.273 165.178C162.273 164.863 162.368 164.65 162.558 164.537C162.748 164.418 163.021 164.356 163.377 164.35C163.419 163.905 163.439 163.585 163.439 163.389C163.439 163.193 163.436 163.03 163.431 162.899C163.431 162.769 163.431 162.671 163.431 162.605C163.822 162.647 164.107 162.766 164.285 162.962C164.464 163.151 164.553 163.424 164.553 163.78C164.553 163.923 164.538 164.121 164.508 164.377C165.007 164.365 165.372 164.267 165.603 164.083C165.615 164.202 165.621 164.291 165.621 164.35C165.621 164.635 165.571 164.833 165.47 164.946C165.369 165.053 165.2 165.106 164.962 165.106C164.725 165.106 164.544 165.103 164.419 165.098C164.389 165.311 164.327 165.682 164.232 166.21ZM166.322 169.378C165.883 169.378 165.663 169.195 165.663 168.827C165.663 168.708 165.717 168.456 165.824 168.07C166.032 168.011 166.242 167.981 166.456 167.981C166.895 167.981 167.115 168.165 167.115 168.533C167.115 168.652 167.062 168.904 166.955 169.289C166.747 169.349 166.536 169.378 166.322 169.378ZM168.175 169.378C167.735 169.378 167.516 169.195 167.516 168.827C167.516 168.708 167.569 168.456 167.676 168.07C167.884 168.011 168.094 167.981 168.308 167.981C168.748 167.981 168.967 168.165 168.967 168.533C168.967 168.652 168.914 168.904 168.807 169.289C168.599 169.349 168.388 169.378 168.175 169.378ZM170.027 169.378C169.588 169.378 169.368 169.195 169.368 168.827C169.368 168.708 169.421 168.456 169.528 168.07C169.736 168.011 169.947 167.981 170.16 167.981C170.6 167.981 170.819 168.165 170.819 168.533C170.819 168.652 170.766 168.904 170.659 169.289C170.451 169.349 170.241 169.378 170.027 169.378Z" fill="#2567B1"/>
</g>
<defs>
<clipPath id="clip0_2856_9">
<rect width="573" height="490" fill="white"/>
</clipPath>
</defs>
</svg>
